<?xml version="1.0" standalone="no"?>
<!DOCTYPE svg PUBLIC "-//W3C//DTD SVG 20010904//EN"
 "http://www.w3.org/TR/2001/REC-SVG-20010904/DTD/svg10.dtd">
<svg version="1.0" xmlns="http://www.w3.org/2000/svg"
 width="551.000000pt" height="551.000000pt" viewBox="0 0 551.000000 551.000000"
 preserveAspectRatio="xMidYMid meet">
<metadata>
Created by potrace 1.14, written by Peter Selinger 2001-2017
</metadata>
<g transform="translate(0.000000,551.000000) scale(0.100000,-0.100000)"
fill="#000000" stroke="none">
<path d="M2428 5435 c-1 -2 -34 -6 -73 -10 -38 -3 -77 -8 -85 -10 -8 -2 -35
-7 -60 -10 -25 -3 -92 -17 -150 -31 -966 -227 -1707 -1014 -1874 -1989 -26
-155 -27 -165 -31 -380 -4 -227 9 -384 49 -570 19 -87 19 -88 6 -80 -9 5 -11
4 -6 -4 4 -6 12 -9 17 -6 5 4 10 -3 11 -14 0 -12 1 -27 2 -33 1 -7 4 -15 8
-18 7 -6 19 -52 21 -82 1 -10 5 -18 10 -18 5 0 7 -9 4 -20 -3 -11 -1 -18 4
-14 9 5 13 -9 10 -33 -1 -7 2 -13 7 -13 5 0 18 -27 28 -60 11 -33 24 -60 29
-60 6 0 3 -5 -5 -10 -10 -6 -11 -10 -3 -10 15 0 45 -55 35 -65 -4 -3 0 -12 8
-18 23 -18 73 -124 64 -138 -4 -7 -3 -9 3 -6 6 4 17 -1 24 -10 12 -15 12 -16
-4 -10 -11 4 -16 3 -12 -3 3 -6 12 -10 20 -10 7 0 17 -9 20 -20 4 -11 17 -32
31 -47 20 -21 22 -29 12 -41 -11 -13 -10 -15 4 -9 19 7 26 -17 8 -28 -6 -3
-10 -12 -10 -18 0 -7 5 -4 11 6 5 9 15 17 21 17 7 0 7 -4 -1 -13 -11 -14 -5
-27 13 -27 6 0 4 5 -4 11 -13 9 -13 10 0 6 19 -5 25 -34 8 -40 -7 -2 -4 -3 8
-1 20 3 64 -42 64 -66 0 -5 5 -10 11 -10 13 0 1 -42 -15 -52 -8 -5 -7 -8 2 -8
7 0 10 -4 7 -10 -3 -5 -1 -10 5 -10 6 0 10 6 9 13 -3 25 1 47 10 47 10 0 9
-50 -2 -67 -5 -8 -4 -13 2 -13 6 0 11 4 11 8 0 17 50 11 60 -7 14 -26 13 -31
-4 -25 -14 5 -43 -32 -33 -43 3 -2 8 5 12 16 7 24 22 28 22 6 0 -8 -4 -15 -9
-15 -4 0 -8 -5 -8 -11 0 -5 10 -3 22 5 30 21 33 21 69 -13 19 -18 28 -35 23
-42 -4 -8 -3 -9 5 -5 7 5 19 0 29 -11 9 -10 30 -29 46 -41 16 -12 22 -22 15
-22 -8 -1 0 -8 16 -17 43 -22 65 -44 58 -56 -4 -6 0 -8 9 -4 10 3 26 -5 42
-24 31 -35 31 -34 4 -36 -13 -1 -18 1 -11 5 7 5 2 14 -15 26 -16 12 -22 14
-18 5 5 -8 -3 -1 -16 15 -14 16 -29 26 -35 23 -5 -3 -10 0 -10 7 0 8 7 12 16
9 14 -4 14 -3 1 5 -9 7 -18 8 -26 1 -8 -6 -14 -6 -18 0 -3 5 0 12 6 15 7 3 2
3 -12 0 -17 -4 -21 -2 -11 4 9 7 10 12 2 16 -6 4 -8 12 -5 18 4 6 -2 6 -15 -1
-19 -10 -21 -9 -18 11 1 18 -2 22 -18 20 -15 -2 -17 0 -6 6 9 7 10 12 2 16 -6
4 -11 2 -11 -4 0 -6 -5 -8 -11 -5 -6 4 -8 14 -5 22 4 9 -1 17 -14 20 -11 3
-20 10 -20 15 0 5 5 6 12 2 7 -4 8 -3 4 5 -12 19 -27 1 -20 -22 6 -20 5 -20
-10 -8 -11 9 -20 11 -27 4 -7 -7 -4 -15 8 -24 16 -13 17 -12 4 4 -9 11 -10 17
-2 17 6 0 16 -12 21 -26 8 -20 13 -24 24 -15 10 9 17 7 26 -4 7 -9 20 -13 27
-10 9 3 13 0 10 -7 -2 -7 -11 -12 -20 -10 -8 1 -19 -3 -23 -9 -5 -8 -2 -10 8
-6 21 8 59 -20 52 -38 -4 -8 -10 -12 -15 -9 -5 3 -6 -2 -2 -12 5 -14 8 -14 18
5 l11 22 25 -20 c24 -21 24 -21 5 -36 -11 -8 -16 -15 -10 -15 5 0 18 7 28 15
23 17 40 20 31 5 -3 -5 -2 -18 4 -27 7 -14 5 -21 -12 -31 -22 -13 -22 -13 2
-6 18 5 22 3 15 -7 -6 -12 -5 -12 8 -1 11 9 18 10 23 2 3 -5 1 -10 -4 -10 -8
0 -7 -7 1 -19 9 -15 15 -17 25 -9 17 13 17 -4 0 -22 -10 -12 -9 -12 5 -2 13
10 17 10 22 0 3 -7 3 -2 -1 12 -5 22 -4 23 10 11 9 -7 14 -18 11 -23 -3 -5 2
-16 12 -24 17 -14 17 -15 2 -10 -10 3 -20 2 -22 -3 -7 -11 58 -10 65 1 3 6 9
3 12 -6 4 -9 2 -16 -2 -16 -12 0 -23 -29 -15 -41 3 -5 11 -6 17 -2 7 4 21 9
32 10 15 3 17 1 7 -9 -15 -15 -16 -28 -1 -28 5 0 8 4 4 9 -3 5 -1 12 5 16 7 4
6 14 -2 28 -10 19 -9 20 4 10 8 -7 19 -9 23 -5 5 4 5 -2 1 -13 -5 -11 -9 -26
-10 -33 -1 -8 -9 -18 -17 -23 -11 -7 -11 -9 4 -9 15 0 22 11 18 33 -1 9 13 9
22 0 4 -3 2 -12 -4 -19 -8 -10 -7 -19 4 -34 12 -18 15 -18 20 -5 4 8 11 15 17
15 6 0 8 -5 4 -12 -4 -6 -3 -8 3 -5 13 8 26 -20 16 -35 -3 -6 -1 -8 5 -4 6 3
14 1 18 -5 9 -16 25 11 18 33 -3 11 0 16 10 14 21 -3 33 -16 15 -16 -11 0 -11
-2 1 -10 9 -6 10 -10 3 -10 -7 0 -17 -10 -24 -21 -9 -17 -8 -20 2 -14 8 6 11
4 7 -7 -4 -8 0 -15 7 -15 10 0 11 5 4 18 -11 22 -11 29 0 29 5 0 12 -11 15
-25 4 -14 11 -25 17 -25 6 0 7 -6 3 -12 -5 -10 -3 -9 7 0 12 11 11 15 -3 23
-10 6 -18 15 -18 21 0 7 4 7 13 -1 10 -8 17 -7 27 2 10 10 12 9 7 -4 -3 -9 1
-29 9 -44 13 -25 13 -30 0 -44 -14 -15 -13 -17 3 -17 12 0 17 5 13 15 -4 9 -1
12 7 7 7 -4 3 9 -8 30 -16 29 -18 40 -8 46 6 4 8 8 3 8 -5 0 -2 8 5 17 12 15
12 16 -1 8 -13 -8 -13 -7 0 10 13 17 13 18 0 10 -20 -13 -40 -15 -40 -5 0 10
31 24 50 21 11 -1 10 3 -4 14 -15 11 -22 12 -27 3 -4 -7 -19 -13 -33 -14 -14
0 -23 3 -20 7 2 4 -5 6 -16 4 -13 -3 -18 0 -14 7 5 7 2 8 -6 3 -9 -6 -11 -4
-5 5 6 9 4 11 -6 5 -12 -8 -12 -6 0 8 8 10 11 20 7 24 -3 3 -6 1 -6 -6 0 -7
-5 -9 -11 -5 -8 4 -7 9 2 16 10 7 8 8 -8 3 -12 -3 -24 -1 -28 5 -3 6 -11 7
-17 4 -7 -4 -8 -2 -4 4 4 7 -1 10 -14 7 -19 -4 -28 9 -12 18 4 2 1 2 -6 0 -7
-1 -10 1 -7 7 3 5 -4 7 -15 5 -11 -2 -18 0 -15 5 4 6 -1 7 -11 3 -14 -5 -16
-3 -11 11 5 11 3 15 -5 10 -7 -4 -8 -3 -4 4 4 7 2 12 -3 12 -6 0 -11 -5 -11
-12 0 -6 -3 -8 -7 -5 -3 4 -12 2 -20 -4 -8 -7 -13 -8 -13 -1 0 10 20 30 33 31
4 1 12 1 18 1 5 0 7 5 4 10 -4 7 -13 6 -27 -1 -16 -9 -19 -8 -13 2 6 8 4 10
-5 4 -9 -6 -11 -4 -5 5 5 9 4 11 -3 6 -8 -5 -10 -1 -6 11 3 10 -1 7 -9 -6 -9
-15 -17 -20 -21 -12 -4 6 -2 11 3 11 6 0 11 4 11 8 0 12 -34 11 -41 0 -3 -5
-9 -3 -12 6 -5 14 5 22 16 14 2 -2 11 3 19 10 13 10 18 10 29 0 8 -8 30 -25
49 -38 19 -13 43 -33 53 -45 11 -11 26 -19 35 -17 12 2 13 0 5 -5 -9 -6 -6
-12 9 -22 18 -11 20 -11 15 3 -6 15 -4 14 17 -1 13 -10 21 -22 18 -27 -3 -5 2
-7 10 -3 10 3 20 -3 28 -19 10 -17 20 -23 36 -20 18 4 21 1 17 -12 -6 -15 -5
-16 12 -2 10 8 16 10 12 3 -5 -7 -1 -11 10 -11 23 1 93 -40 93 -55 0 -7 5 -6
11 3 9 13 10 13 6 0 -2 -8 -11 -14 -18 -13 -9 2 -15 -6 -16 -17 -2 -17 1 -18
18 -9 11 6 23 17 26 25 5 14 24 20 22 7 -3 -21 2 -26 12 -13 12 16 11 11 -7
-35 -4 -11 -4 -17 1 -13 4 4 14 3 22 -3 9 -8 13 -8 13 -1 0 6 -5 14 -10 17 -8
5 -7 11 1 21 6 7 15 11 21 8 5 -3 4 -12 -3 -20 -7 -9 -8 -14 -1 -14 6 0 14 4
17 10 3 5 12 10 18 10 8 0 8 -3 2 -8 -15 -10 -13 -34 4 -40 8 -3 11 0 8 5 -3
5 -1 15 5 23 8 12 9 12 4 -2 -3 -10 -1 -20 4 -23 6 -4 10 1 10 9 0 9 4 16 10
16 5 0 7 -7 3 -16 -5 -14 -3 -15 12 -6 14 7 25 6 41 -5 13 -8 27 -12 32 -9 5
3 7 -6 4 -19 -2 -14 0 -25 6 -25 5 0 9 7 8 16 0 9 6 19 14 21 13 4 13 3 0 -6
-22 -15 -5 -24 22 -11 22 11 22 10 4 -4 -11 -9 -15 -16 -10 -16 5 0 18 -14 28
-30 16 -28 36 -33 36 -9 0 6 -4 7 -10 4 -6 -4 -7 1 -3 11 4 11 3 15 -5 10 -15
-9 -26 14 -13 27 9 9 10 7 5 -8 -7 -18 -6 -19 11 -5 11 9 16 10 11 3 -8 -15 3
-17 24 -4 10 7 19 2 33 -21 10 -17 21 -28 24 -24 3 3 1 12 -5 19 -9 10 -8 14
3 14 8 0 12 -4 9 -9 -4 -5 2 -8 12 -6 15 2 19 -3 18 -24 -1 -22 3 -27 19 -24
12 1 23 8 25 14 2 7 -3 10 -12 6 -10 -4 -14 0 -13 15 1 14 5 17 13 10 6 -5 19
-7 28 -3 10 4 16 1 17 -7 2 -25 1 -54 -5 -76 -3 -15 -1 -20 8 -17 12 5 16 17
17 57 0 9 4 17 9 17 5 0 6 -12 4 -27 -6 -30 -3 -29 15 5 10 20 9 23 -11 32
-15 6 -18 9 -7 9 9 1 22 -6 29 -14 7 -8 17 -12 23 -8 6 4 7 1 2 -7 -5 -8 -3
-11 6 -8 8 3 13 11 12 17 -2 6 2 11 7 11 13 0 13 -17 0 -25 -6 -3 -10 -11 -10
-17 0 -7 5 -6 15 2 17 14 39 4 31 -16 -9 -23 9 -16 33 12 18 21 25 24 32 13 5
-8 6 -21 4 -29 -6 -20 32 -21 40 -2 4 10 0 12 -12 8 -10 -4 -14 -4 -10 0 4 4
2 12 -3 19 -7 8 -5 12 5 12 8 0 11 -5 8 -10 -4 -6 1 -8 11 -4 9 4 15 3 12 -2
-3 -5 1 -11 9 -15 8 -3 17 -1 20 4 4 6 1 10 -4 10 -6 0 -11 5 -11 10 0 6 8 5
20 -2 14 -9 16 -14 7 -20 -9 -6 -9 -8 1 -8 6 0 12 -5 12 -11 0 -8 -4 -8 -14 1
-12 9 -15 8 -13 -8 1 -13 8 -19 23 -19 19 0 22 4 19 28 -2 16 1 29 6 29 6 0 8
-4 5 -9 -3 -5 1 -12 10 -15 24 -9 26 -8 14 14 -6 11 -7 20 -3 20 5 0 13 -10
18 -22 6 -14 18 -22 30 -21 10 1 27 -3 37 -8 12 -6 18 -6 18 0 0 16 -37 32
-56 24 -12 -4 -15 -3 -10 6 5 8 18 10 33 6 16 -4 22 -2 18 4 -3 7 0 8 10 5 9
-4 14 -12 12 -18 -7 -19 12 -46 28 -40 8 4 12 11 8 17 -3 6 -1 7 6 3 14 -9 43
12 35 25 -3 5 0 9 6 9 7 0 9 -7 6 -16 -5 -12 -2 -15 10 -10 8 3 18 6 21 6 3 0
-1 8 -8 18 -11 14 -11 15 0 5 7 -6 19 -9 26 -7 18 7 30 -15 16 -29 -13 -13
-14 -27 -2 -27 5 0 12 9 16 19 6 19 35 19 35 0 0 -4 -7 -6 -15 -3 -8 4 -15 1
-15 -5 0 -6 4 -11 9 -11 5 0 17 -3 27 -7 13 -5 15 -3 9 8 -7 12 -6 12 7 1 13
-11 16 -9 16 13 0 20 -3 23 -14 14 -9 -7 -14 -8 -14 -1 0 6 6 13 13 15 9 4 8
8 -3 16 -8 6 -10 11 -4 11 7 0 19 -11 27 -24 20 -31 57 -29 75 4 13 24 14 24
9 2 -4 -18 -2 -22 9 -18 8 3 24 -4 36 -16 12 -12 15 -19 7 -16 -18 7 -53 -12
-56 -29 -4 -17 5 -16 22 1 8 7 25 12 39 11 21 -3 25 1 23 18 -1 13 5 23 16 25
9 2 17 -1 17 -7 0 -6 -7 -8 -15 -5 -26 10 -16 -10 11 -23 21 -10 25 -10 20 2
-3 8 0 12 7 9 7 -2 13 4 14 16 1 11 -2 20 -8 20 -5 0 -9 -5 -9 -12 0 -6 -3 -8
-6 -5 -4 4 -2 13 5 21 9 11 9 15 -1 19 -9 4 -10 6 -1 6 18 1 33 -32 28 -62 -5
-24 -4 -24 20 -14 26 13 35 33 10 23 -8 -3 -15 -1 -15 5 0 6 8 9 18 7 11 -3
16 -12 15 -26 -2 -13 1 -21 5 -18 4 2 14 1 22 -4 8 -5 21 -5 31 1 18 9 49 -11
49 -32 0 -6 5 -7 11 -3 7 4 7 10 1 16 -6 6 -8 18 -5 27 4 9 3 13 -2 9 -4 -4
-15 -3 -24 2 -10 5 -23 5 -31 0 -7 -4 -19 -6 -26 -3 -9 3 -6 11 11 27 17 16
21 26 15 34 -7 8 -7 9 1 3 6 -5 19 -7 28 -4 11 4 10 1 -4 -11 -20 -16 -20 -16
-1 -31 16 -12 22 -12 28 -2 13 20 9 30 -7 17 -9 -7 -15 -8 -15 -2 0 16 25 21
43 7 21 -15 22 -26 2 -19 -8 4 -15 1 -15 -5 0 -6 4 -11 9 -11 5 0 17 -3 27 -7
13 -5 15 -3 9 8 -7 12 -6 12 7 1 13 -11 16 -9 16 13 0 20 -3 23 -14 14 -9 -7
-14 -8 -14 -1 0 6 6 13 13 15 9 4 8 8 -3 16 -8 6 -10 11 -4 11 7 0 19 -11 27
-24 20 -31 57 -29 75 4 13 24 14 24 9 2 -4 -18 -2 -22 9 -18 8 3 24 -4 35 -15
11 -11 14 -19 7 -18 -21 4 -59 -12 -53 -22 4 -5 14 -5 23 -1 9 5 27 7 39 7 17
-2 22 3 20 18 -1 13 5 23 16 25 9 2 17 -1 17 -7 0 -6 -7 -8 -15 -5 -26 10 -16
-10 11 -23 21 -10 25 -10 20 2 -3 8 0 12 7 9 7 -2 13 4 14 16 1 11 -2 20 -8
20 -5 0 -9 -5 -9 -12 0 -6 -3 -8 -6 -5 -4 4 -2 13 5 21 9 11 9 15 -1 19 -9 4
-10 6 -1 6 18 1 33 -32 28 -62 -5 -24 -4 -24 20 -14 26 13 35 33 10 23 -8 -3
-15 -1 -15 5 0 6 8 9 18 7 11 -3 16 -12 15 -26 -2 -13 1 -21 5 -18 4 2 14 1
22 -4 8 -5 21 -5 31 1 18 9 49 -11 49 -32 0 -6 5 -7 11 -3 7 4 7 10 1 16 -6 6
-8 18 -5 27 4 9 3 13 -2 9 -4 -4 -15 -3 -24 2 -10 5 -23 5 -31 0 -7 -4 -19 -6
-26 -3 -9 3 -6 11 11 27 17 16 21 26 15 34 -7 8 -7 9 1 3 6 -5 19 -7 28 -4 11
4 10 1 -4 -11 -20 -16 -20 -16 -1 -31 16 -12 22 -12 28 -2 13 20 9 30 -7 17
-9 -7 -15 -8 -15 -2 0 16 25 21 43 7 21 -15 22 -26 2 -19 -8 4 -15 1 -15 -5 0
-6 4 -11 9 -11 5 0 17 -3 27 -7 13 -5 15 -3 9 8 -7 12 -6 12 7 1 13 -11 16 -9
16 13 -1 20 -3 23 -14 14 -9 -7 -14 -8 -14 -1 0 6 6 13 13 15 9 4 8 8 -3 16
-8 6 -10 11 -4 11 7 0 19 -11 27 -24 20 -31 57 -29 75 4 13 24 14 24 9 2 -4
-18 -2 -22 9 -18 8 3 24 -4 35 -15 11 -11 14 -19 7 -18 -21 4 -59 -12 -53 -22
4 -5 14 -5 23 -1 9 5 27 7 39 7 17 -2 22 3 20 18 -1 13 5 23 16 25 9 2 17 -1
17 -7 0 -6 -7 -8 -15 -5 -26 10 -16 -10 11 -23 21 -10 25 -10 20 2 -3 8 0 12
7 9 7 -2 13 4 14 16 1 11 -2 20 -8 20 -5 0 -9 -5 -9 -12 0 -6 -3 -8 -6 -5 -4
4 -2 13 5 21 9 11 9 15 -1 19 -9 4 -10 6 -1 6 18 1 33 -32 28 -62 -5 -24 -4
-24 20 -14 26 13 35 33 10 23 -8 -3 -15 -1 -15 5 0 6 8 9 18 7 11 -3 16 -12
15 -26 -2 -13 1 -21 5 -18 4 2 14 1 22 -4 8 -5 21 -5 31 1 18 9 49 -11 49 -32
0 -6 5 -7 11 -3 7 4 7 10 1 16 -6 6 -8 18 -5 27 4 9 3 13 -2 9 -4 -4 -15 -3
-24 2 -10 5 -23 5 -31 0 -7 -4 -19 -6 -26 -3 -9 3 -6 11 11 27 17 16 21 26 15
34 -7 8 -7 9 1 3 6 -5 19 -7 28 -4 11 4 10 1 -4 -11 -20 -16 -20 -16 -1 -31
16 -12 22 -12 28 -2 13 20 9 30 -7 17 -9 -7 -15 -8 -15 -2 0 16 25 21 43 7 21
-15 22 -26 2 -19 -8 4 -15 1 -15 -5 0 -6 4 -11 9 -11 5 0 17 -3 27 -7 13 -5
15 -3 9 8 -7 12 -6 12 7 1 13 -11 16 -9 16 13 0 20 -3 23 -14 14 -9 -7 -14 -8
-14 -1 0 6 6 13 13 15 9 4 8 8 -3 16 -8 6 -10 11 -4 11 7 0 19 -11 27 -24 20
-31 57 -29 75 4 13 24 14 24 9 2 -4 -18 -2 -22 9 -18 8 3 24 -4 35 -15 11 -11
14 -19 7 -18 -21 4 -59 -12 -53 -22 4 -5 14 -5 23 -1 9 5 27 7 39 7 17 -2 22
3 20 18 -1 13 5 23 16 25 9 2 17 -1 17 -7 0 -6 -7 -8 -15 -5 -26 10 -16 -10
11 -23 21 -10 25 -10 20 2 -3 8 0 12 7 9 7 -2 13 4 14 16 1 11 -2 20 -8 20 -5
0 -9 -5 -9 -12 0 -6 -3 -8 -6 -5 -4 4 -2 13 5 21 9 11 9 15 -1 19 -9 4 -10 6
-1 6 18 1 33 -32 28 -62 -5 -24 -4 -24 20 -14 26 13 35 33 10 23 -8 -3 -15 -1
-15 5 0 6 8 9 18 7 11 -3 16 -12 15 -26 -2 -13 1 -21 5 -18 4 2 14 1 22 -4 15
-9 62 9 54 21 -3 5 -13 5 -22 0 -32 -16 -43 -1 -17 23 17 16 21 26 15 34 -7 8
-7 9 1 3 6 -5 17 -7 24 -5 18 7 30 -16 15 -29 -10 -9 -12 -8 -7 6 7 18 -8 24
-18 7 -7 -11 11 -40 25 -40 4 0 11 10 16 21 9 20 11 21 27 5 9 -10 15 -21 12
-26 -3 -5 4 -8 15 -7 11 1 18 7 16 13 -3 7 4 20 15 30 15 13 16 19 7 26 -7 4
-8 8 -2 8 5 0 19 -7 30 -15 18 -15 18 -15 0 -13 -10 2 -21 -2 -23 -7 -5 -17
34 -15 48 1 10 13 10 17 -2 26 -12 8 -12 9 1 5 8 -2 14 -11 14 -20 -1 -9 6
-15 17 -14 22 1 24 8 7 26 -11 10 -9 11 5 5 19 -7 18 -41 -1 -37 -15 4 -15
-10 0 -25 15 -15 32 -16 23 -2 -7 11 25 70 37 70 5 0 1 -11 -7 -24 -15 -23
-15 -25 4 -38 12 -8 19 -17 16 -20 -3 -3 1 -10 8 -16 11 -9 14 -6 14 17 0 19
-5 27 -13 24 -21 -8 -27 18 -9 35 11 10 15 11 10 3 -5 -9 -3 -12 6 -9 8 3 13
10 12 15 -1 5 7 9 17 9 10 0 16 -6 13 -13 -3 -7 -10 -11 -15 -10 -6 1 -12 -3
-14 -8 -2 -6 5 -11 16 -11 11 0 23 8 26 18 5 18 10 20 54 22 l25 1 0 1318 c1
724 -2 1317 -5 1317 -3 0 -5 17 -4 37 0 21 -3 51 -8 68 -5 19 -4 31 2 33 5 2
10 8 10 13 0 6 -5 7 -10 4 -13 -8 -9 17 4 27 5 3 11 14 12 24 2 9 9 21 16 25
10 7 10 9 0 9 -7 0 -15 -6 -18 -14 -8 -20 -29 -10 -31 14 -1 12 5 20 15 21 12
0 11 3 -5 9 -13 5 -23 14 -23 20 0 6 4 8 10 5 6 -3 7 1 4 9 -3 9 -9 16 -14 16
-4 0 -8 15 -9 33 -2 17 -3 40 -4 50 -1 9 -4 17 -8 17 -4 0 -9 11 -11 25 -5 22
-3 23 10 13 13 -11 14 -11 8 0 -4 7 -2 20 6 30 12 15 11 16 -4 4 -22 -18 -41
-6 -36 22 3 12 -2 28 -10 35 -11 10 -11 15 -2 21 10 6 9 9 0 12 -7 2 -13 18
-14 35 0 17 -4 29 -8 27 -3 -2 -13 16 -21 41 -9 25 -13 45 -9 45 4 0 1 4 -7 9
-8 5 -14 22 -15 39 0 17 -4 28 -9 25 -4 -2 -12 7 -17 21 -6 14 -15 38 -22 54
-7 15 -12 33 -13 40 0 7 -5 16 -11 20 -18 11 -54 93 -47 106 3 6 3 8 -2 4 -8
-7 -75 93 -75 112 0 4 -4 10 -8 12 -18 7 -73 99 -66 110 4 7 3 8 -4 4 -6 -4
-19 6 -29 21 -20 31 -40 58 -63 82 -8 9 -33 39 -55 66 -60 74 -226 237 -319
311 -344 278 -802 477 -1216 530 -25 3 -56 8 -70 11 -28 5 -466 13 -472 8z
m2667 -2115 c3 -5 2 -10 -4 -10 -5 0 -13 5 -16 10 -3 6 -2 10 4 10 5 0 13 -4
16 -10z m-4362 -1946 c3 -3 3 -13 0 -21 -5 -12 -7 -12 -14 -1 -15 23 -4 40 14
22z m66 -95 c-22 -13 -31 -11 -17 5 7 8 17 12 22 9 4 -3 2 -9 -5 -14z m41 -90
c-7 -11 -14 -18 -17 -15 -8 8 5 36 17 36 7 0 7 -6 0 -21z m90 -79 c0 -5 -2
-10 -4 -10 -3 0 -8 5 -11 10 -3 6 -1 10 4 10 6 0 11 -4 11 -10z m121 -105 c7
0 13 -8 15 -17 2 -20 -11 -24 -21 -8 -4 6 -11 8 -16 5 -5 -3 -6 0 -3 8 3 8 1
18 -5 22 -6 3 -11 11 -11 18 0 6 6 2 14 -9 8 -10 20 -19 27 -19z m19 -55 c0
-5 -4 -10 -10 -10 -5 0 -10 5 -10 10 0 6 5 10 10 10 6 0 10 -4 10 -10z m85
-39 c7 -12 -12 -24 -25 -16 -11 7 -4 25 10 25 5 0 11 -4 15 -9z m57 -68 c2 -6
0 -10 -3 -9 -3 0 -13 -5 -22 -13 -10 -7 -17 -9 -17 -3 0 5 6 15 14 22 8 6 12
19 10 28 -5 15 -4 15 5 2 5 -9 11 -21 13 -27z m86 -33 c1 -2 5 -3 10 -4 21 -5
52 -28 47 -36 -3 -5 -1 -12 5 -15 8 -5 7 -11 -1 -21 -8 -10 -8 -14 0 -14 6 0
11 -4 11 -10 0 -21 -18 -9 -30 20 -13 30 -33 39 -46 19 -4 -7 -10 -7 -16 -1
-15 15 -1 31 22 27 11 -2 22 0 25 5 3 5 -3 7 -14 5 -11 -2 -27 5 -36 15 -16
17 -16 18 2 15 10 -2 19 -4 21 -5z m117 -8 c-3 -3 -11 0 -18 7 -9 10 -8 11 6
5 10 -3 15 -9 12 -12z m31 -91 c0 -9 4 -16 11 -16 6 0 15 -4 20 -9 4 -5 3 -6
-4 -2 -6 3 -14 2 -18 -4 -9 -15 -43 10 -40 29 4 19 2 18 19 18 7 0 13 -7 12
-16z m857 -219 c-4 -10 -9 -10 -22 0 -9 7 -17 13 -19 14 -2 1 8 1 21 0 15 0
23 -6 20 -14z m347 -13 c0 -5 5 -7 10 -4 6 3 10 1 10 -5 0 -7 -7 -10 -15 -6
-8 3 -19 -2 -24 -12 -6 -9 -11 -12 -11 -5 0 6 5 15 11 19 8 4 7 9 -2 15 -11 7
-10 9 4 9 9 0 17 -5 17 -11z m160 -10 c0 -6 -4 -7 -10 -4 -5 3 -10 11 -10 16
0 6 5 7 10 4 6 -3 10 -11 10 -16z m86 7 c19 -14 18 -15 -3 -13 -12 0 -20 4
-17 8 2 4 -2 10 -8 12 -7 3 -8 6 -2 6 5 1 19 -5 30 -13z m117 -7 c14 14 37 14
37 -1 0 -6 -3 -8 -7 -5 -3 4 -16 1 -27 -6 -18 -11 -24 -10 -46 12 l-25 25 29
-18 c20 -13 31 -15 39 -7z m117 10 c0 -5 5 -7 10 -4 6 3 10 1 10 -4 0 -6 5
-11 11 -11 5 0 7 5 4 10 -3 6 -1 10 4 10 13 0 13 -3 5 -24 -5 -13 -8 -14 -28
-1 -13 8 -26 12 -31 8 -4 -5 -5 -3 -2 4 4 6 1 14 -5 16 -8 3 -6 6 5 6 9 1 17
-4 17 -10z m160 -10 c0 -6 -4 -7 -10 -4 -5 3 -10 11 -10 16 0 6 5 7 10 4 6 -3
10 -11 10 -16z m86 7 c19 -14 18 -15 -3 -13 -12 0 -20 4 -17 8 2 4 -2 10 -8
12 -7 3 -8 6 -2 6 5 1 19 -5 30 -13z m117 -7 c14 14 37 14 37 -1 0 -6 -3 -8
-7 -5 -3 4 -16 1 -27 -6 -18 -11 -24 -10 -46 12 l-25 25 29 -18 c20 -13 31
-15 39 -7z m117 10 c0 -5 5 -7 10 -4 6 3 10 1 10 -4 0 -6 5 -11 11 -11 5 0 7
5 4 10 -3 6 -1 10 4 10 13 0 13 -3 5 -24 -5 -13 -8 -14 -28 -1 -13 8 -26 12
-31 8 -4 -5 -5 -3 -2 4 4 6 1 14 -5 16 -8 3 -6 6 5 6 9 1 17 -4 17 -10z m160
-10 c0 -6 -4 -7 -10 -4 -5 3 -10 11 -10 16 0 6 5 7 10 4 6 -3 10 -11 10 -16z
m86 7 c19 -14 18 -15 -3 -13 -12 0 -20 4 -17 8 2 4 -2 10 -8 12 -7 3 -8 6 -2
6 5 1 19 -5 30 -13z m117 -7 c14 14 37 14 37 -1 0 -6 -3 -8 -7 -5 -3 4 -16 1
-27 -6 -18 -11 -24 -10 -46 12 l-25 25 29 -18 c20 -13 31 -15 39 -7z m117 10
c0 -5 5 -7 10 -4 6 3 10 1 10 -4 0 -6 5 -11 11 -11 5 0 7 5 4 10 -3 6 -1 10 4
10 13 0 13 -3 5 -24 -5 -13 -8 -14 -28 -1 -13 8 -26 12 -31 8 -4 -5 -5 -3 -2
4 4 6 1 14 -5 16 -8 3 -6 6 5 6 9 1 17 -4 17 -10z m160 -10 c0 -6 -4 -7 -10
-4 -5 3 -10 11 -10 16 0 6 5 7 10 4 6 -3 10 -11 10 -16z m86 7 c19 -14 18 -15
-3 -13 -12 0 -20 4 -17 8 2 4 -2 10 -8 12 -7 3 -8 6 -2 6 5 1 19 -5 30 -13z
m117 -7 c14 14 37 14 37 -1 0 -6 -3 -8 -7 -5 -3 4 -16 1 -27 -6 -18 -11 -24
-10 -46 12 l-25 25 29 -18 c20 -13 31 -15 39 -7z m117 10 c0 -5 5 -7 10 -4 6
3 10 1 10 -4 0 -6 5 -11 11 -11 5 0 7 5 4 10 -3 6 -1 10 4 10 13 0 13 -3 5
-24 -5 -13 -8 -14 -28 -1 -13 8 -26 12 -31 8 -4 -5 -5 -3 -2 4 4 6 1 14 -5 16
-8 3 -6 6 5 6 9 1 17 -4 17 -10z m160 -10 c0 -6 -4 -7 -10 -4 -5 3 -10 11 -10
16 0 6 5 7 10 4 6 -3 10 -11 10 -16z m36 10 c3 -6 -1 -18 -10 -27 -9 -9 -16
-11 -16 -5 0 6 6 14 13 16 9 4 8 8 -3 16 -9 7 -10 11 -3 11 6 0 15 -5 19 -11z"/>
<path d="M1330 771 c0 -5 8 -15 18 -22 15 -12 16 -12 5 2 -7 9 -10 19 -6 22 3
4 1 7 -5 7 -7 0 -12 -4 -12 -9z"/>
<path d="M4976 3788 c3 -5 10 -6 15 -3 13 9 11 12 -6 12 -8 0 -12 -4 -9 -9z"/>
<path d="M5050 3766 c0 -2 8 -10 18 -17 15 -13 16 -12 3 4 -13 16 -21 21 -21
13z"/>
<path d="M5068 3533 c7 -3 16 -2 19 1 4 3 -2 6 -13 5 -11 0 -14 -3 -6 -6z"/>
<path d="M5076 3508 c3 -5 10 -6 15 -3 13 9 11 12 -6 12 -8 0 -12 -4 -9 -9z"/>
<path d="M5060 3455 c0 -7 30 -13 34 -7 3 4 -4 9 -15 9 -10 1 -19 0 -19 -2z"/>
<path d="M5113 3439 c-2 -23 3 -25 10 -4 4 8 3 16 -1 19 -4 3 -9 -4 -9 -15z"/>
<path d="M5159 3383 c-13 -16 -12 -17 4 -4 9 7 17 15 17 17 0 8 -8 3 -21 -13z"/>
<path d="M5139 3343 c-13 -16 -12 -17 4 -4 9 7 17 15 17 17 0 8 -8 3 -21 -13z"/>
<path d="M5139 3303 c-13 -16 -12 -17 4 -4 9 7 17 15 17 17 0 8 -8 3 -21 -13z"/>
<path d="M5113 3282 c0 -12 5 -22 9 -22 11 0 10 12 -2 30 -7 12 -9 10 -7 -8z"/>
<path d="M5150 3255 c0 -7 30 -13 34 -7 3 4 -4 9 -15 9 -10 1 -19 0 -19 -2z"/>
<path d="M5102 3225 c11 -25 28 -34 28 -15 0 6 -4 10 -10 10 -5 0 -10 7 -10
15 0 8 -4 15 -10 15 -6 0 -5 -10 2 -25z"/>
<path d="M5131 3243 c-1 -17 16 -25 25 -12 4 7 3 9 -4 5 -5 -3 -13 0 -15 6 -4
9 -6 10 -6 1z"/>
<path d="M5134 3188 c-4 -5 -3 -12 0 -15 3 -4 6 0 6 7 0 9 7 7 22 -6 14 -12
18 -13 10 -3 -6 9 -10 18 -7 21 3 2 -2 5 -10 5 -9 0 -18 -4 -21 -9z"/>
<path d="M5107 3159 c7 -7 15 -10 18 -7 3 3 -2 9 -12 12 -14 6 -15 5 -6 -5z"/>
<path d="M5140 3150 c0 -6 7 -10 15 -10 8 0 15 2 15 4 0 2 -7 6 -15 10 -8 3
-15 1 -15 -4z"/>
<path d="M5110 3130 c0 -5 5 -10 11 -10 8 0 8 -4 1 -13 -8 -10 -6 -13 11 -14
15 -2 18 0 9 6 -8 5 -13 11 -13 15 3 18 0 26 -9 26 -5 0 -10 -4 -10 -10z"/>
<path d="M5175 3110 c6 -30 16 -40 12 -12 -2 12 -6 24 -10 28 -3 4 -4 -4 -2
-16z"/>
<path d="M5150 3080 c-9 -6 -10 -10 -3 -10 6 0 15 5 18 10 8 12 4 12 -15 0z"/>
<path d="M5113 3065 c0 -8 4 -12 9 -9 4 3 8 9 8 15 0 5 -4 9 -8 9 -5 0 -9 -7
-9 -15z"/>
<path d="M5129 3047 c-15 -12 -23 -51 -8 -42 4 3 9 -1 12 -9 6 -14 57 -19 57
-5 0 4 -12 6 -26 3 -14 -3 -23 -1 -20 5 3 5 -2 12 -12 16 -16 6 -16 7 2 21 11
7 18 16 15 18 -2 2 -11 -1 -20 -7z"/>
<path d="M5152 3034 c-7 -8 -8 -14 -3 -14 10 0 25 19 20 25 -2 1 -10 -3 -17
-11z"/>
<path d="M5120 2971 c8 -6 10 -11 4 -11 -14 0 -13 -60 1 -60 5 0 3 -5 -5 -11
-11 -8 -9 -9 10 -3 l25 6 -25 -27 c-14 -16 -19 -25 -12 -21 6 4 12 3 12 -3 0
-5 -6 -12 -12 -14 -9 -4 -8 -6 2 -6 13 -1 13 -2 0 -11 -11 -7 -11 -10 -2 -10
7 0 11 -4 8 -9 -3 -4 4 -8 16 -7 29 1 34 23 8 31 -12 4 -19 10 -15 13 6 7 10
8 38 11 9 1 8 4 -2 10 -8 5 -21 7 -30 4 -9 -3 -3 7 13 22 16 15 23 26 15 25
-25 -4 -39 0 -39 11 0 6 9 8 23 4 17 -5 16 -3 -6 10 -26 15 -29 35 -6 35 6 0
7 -4 4 -10 -3 -5 -2 -10 3 -10 14 0 22 27 9 27 -7 0 -21 4 -32 8 -16 5 -17 5
-5 -4z m35 -171 c3 -5 2 -10 -4 -10 -5 0 -13 5 -16 10 -3 6 -2 10 4 10 5 0 13
-4 16 -10z"/>
<path d="M5195 2940 c-4 -6 -11 -7 -17 -4 -7 4 -8 2 -4 -5 6 -9 11 -9 22 0 14
11 18 19 10 19 -3 0 -8 -5 -11 -10z"/>
<path d="M5195 2911 c-3 -5 -2 -12 3 -15 5 -3 9 1 9 9 0 17 -3 19 -12 6z"/>
<path d="M5170 2870 c0 -5 5 -10 10 -10 6 0 10 5 10 10 0 6 -4 10 -10 10 -5 0
-10 -4 -10 -10z"/>
<path d="M5180 2830 c-9 -6 -10 -10 -3 -10 6 0 15 5 18 10 8 12 4 12 -15 0z"/>
<path d="M5170 2775 c-7 -8 -22 -13 -35 -11 -18 3 -22 0 -21 -19 1 -13 5 -27
9 -31 4 -4 2 -13 -4 -20 -7 -8 -7 -14 1 -19 8 -5 8 -11 -1 -21 -8 -10 -8 -14
0 -14 6 0 10 -3 10 -7 -3 -20 3 -23 21 -13 11 6 20 16 19 23 0 9 -2 9 -6 0 -2
-7 -9 -13 -14 -13 -6 0 -7 5 -4 10 4 6 1 17 -5 25 -15 18 1 20 19 3 9 -8 11
-8 8 -2 -4 7 0 14 8 17 8 4 12 15 10 27 -3 16 0 20 10 16 8 -3 14 0 12 7 -1 7
4 11 11 9 8 -1 11 2 7 8 -10 16 -54 -19 -50 -39 2 -14 -3 -18 -19 -18 -13 0
-23 6 -23 14 0 8 6 12 14 9 8 -3 11 -2 8 3 -3 5 -1 12 5 16 6 4 8 11 5 16 -4
5 -2 9 3 9 6 0 12 7 16 15 7 19 2 19 -14 0z m-10 -31 c0 -2 -9 -8 -19 -14 -16
-8 -19 -7 -16 8 2 9 4 18 4 19 1 4 31 -9 31 -13z"/>
<path d="M5190 2676 c0 -2 7 -7 16 -10 8 -3 12 -2 9 4 -6 10 -25 14 -25 6z"/>
<path d="M5185 2649 c9 -24 -47 -63 -65 -46 -12 10 -12 9 -2 -4 7 -9 8 -19 2
-25 -6 -6 -6 -15 0 -24 7 -10 10 -11 10 -2 0 6 5 12 12 12 6 0 8 -3 5 -7 -4
-3 -2 -12 5 -20 9 -12 6 -13 -16 -9 -22 4 -25 2 -16 -9 8 -9 8 -15 0 -20 -8
-5 -8 -11 -1 -19 7 -9 7 -16 -1 -24 -7 -7 -8 -12 -2 -12 6 0 11 -7 11 -15 0
-8 -5 -15 -11 -15 -6 0 -5 -4 3 -9 12 -8 12 -12 2 -25 -9 -11 -10 -16 -2 -16
13 0 10 -22 -4 -32 -6 -5 -5 -8 3 -8 7 0 11 -4 8 -8 -2 -4 11 -8 30 -9 34 -1
34 0 14 17 -11 9 -16 20 -13 24 4 4 -1 4 -12 0 -17 -7 -18 -6 -7 8 10 13 11
22 2 37 -7 15 -7 21 0 21 6 0 15 -10 20 -22 l9 -23 0 23 c1 12 -4 22 -10 22
-5 0 -7 4 -4 10 4 6 -1 7 -12 3 -16 -6 -16 -5 -4 10 11 14 11 20 1 32 -8 10
-9 15 -2 15 6 0 16 -8 21 -17 6 -10 11 -13 11 -6 0 6 -5 15 -10 18 -8 5 -8 11
-1 19 6 7 8 16 4 19 -3 4 0 7 8 7 12 0 12 2 0 9 -17 11 -23 39 -10 47 8 5 13
-9 10 -28 0 -5 4 -8 9 -8 14 0 13 13 -3 35 -10 12 -16 14 -21 7 -4 -7 -12 -12
-18 -12 -7 0 -6 6 2 15 7 8 18 15 24 15 19 0 39 41 26 54 -8 8 -10 7 -5 -5z
m-25 -145 c0 -2 -10 -9 -22 -15 -20 -11 -21 -10 -11 3 7 8 10 18 6 22 -4 4 0
4 10 0 9 -3 17 -8 17 -10z m-5 -184 c3 -5 2 -10 -4 -10 -5 0 -13 5 -16 10 -3
6 -2 10 4 10 5 0 13 -4 16 -10z"/>
<path d="M5197 2599 c7 -7 15 -10 18 -7 3 3 -2 9 -12 12 -14 6 -15 5 -6 -5z"/>
<path d="M5200 2525 c-7 -8 -9 -15 -4 -15 4 0 0 -6 -11 -13 -14 -11 -15 -16
-5 -22 8 -5 11 -4 7 2 -4 6 0 14 9 17 9 4 14 9 11 13 -4 3 -2 12 4 20 6 7 9
13 6 13 -2 0 -10 -7 -17 -15z"/>
<path d="M5195 2461 c-3 -5 -2 -12 3 -15 5 -3 9 1 9 9 0 17 -3 19 -12 6z"/>
<path d="M5170 2430 c0 -5 5 -10 10 -10 6 0 10 5 10 10 0 6 -4 10 -10 10 -5 0
-10 -4 -10 -10z"/>
<path d="M5193 2392 c1 -14 5 -18 11 -12 7 7 6 14 -1 21 -9 9 -12 7 -10 -9z"/>
<path d="M5170 2350 c0 -5 5 -10 10 -10 6 0 10 5 10 10 0 6 -4 10 -10 10 -5 0
-10 -4 -10 -10z"/>
<path d="M5197 2319 c7 -7 15 -10 18 -7 3 3 -2 9 -12 12 -14 6 -15 5 -6 -5z"/>
<path d="M5120 2276 c6 -6 6 -14 0 -21 -5 -6 -5 -16 0 -25 7 -10 10 -11 10 -2
0 6 5 12 12 12 6 0 8 -3 5 -7 -4 -3 -2 -12 5 -20 9 -12 6 -13 -17 -9 -21 4
-25 2 -17 -6 8 -8 8 -15 1 -24 -7 -8 -7 -14 1 -19 8 -5 8 -11 -1 -21 -6 -8 -7
-14 -2 -14 5 0 10 -7 10 -15 0 -8 -5 -15 -11 -15 -6 0 -5 -4 3 -9 12 -8 12
-12 2 -25 -9 -11 -10 -16 -2 -16 13 0 10 -22 -4 -32 -6 -5 -5 -8 3 -8 7 0 11
-4 8 -8 -2 -4 11 -8 30 -9 34 -1 34 0 14 17 -11 9 -16 20 -13 24 4 4 -1 4 -12
0 -17 -7 -18 -6 -7 8 10 13 11 22 2 37 -7 15 -7 21 0 21 6 0 15 -10 20 -22 l9
-23 0 23 c1 12 -4 22 -10 22 -5 0 -7 4 -4 10 4 6 -1 7 -12 3 -16 -6 -16 -5 -4
10 11 14 11 20 1 32 -8 10 -9 15 -2 15 6 0 16 -8 21 -17 6 -10 11 -13 11 -6 0
6 -5 15 -10 18 -8 5 -8 11 -1 19 6 7 8 16 4 19 -3 4 0 7 8 7 12 0 12 2 0 9
-17 11 -23 39 -10 47 8 5 13 -9 10 -28 0 -5 4 -8 9 -8 14 0 13 13 -3 35 -10
12 -16 14 -21 7 -4 -7 -12 -12 -17 -12 -16 0 1 21 25 30 17 7 13 8 -16 7 -23
-1 -33 -6 -28 -11z m40 -92 c0 -2 -10 -9 -22 -15 -20 -11 -21 -10 -11 3 7 8
10 18 6 22 -4 4 0 4 10 0 9 -3 17 -8 17 -10z m-5 -184 c3 -5 2 -10 -4 -10 -5
0 -13 5 -16 10 -3 6 -2 10 4 10 5 0 13 -4 16 -10z"/>
<path d="M5197 2279 c7 -7 15 -10 18 -7 3 3 -2 9 -12 12 -14 6 -15 5 -6 -5z"/>
<path d="M5190 2255 c0 -7 30 -13 34 -7 3 4 -4 9 -15 9 -10 1 -19 0 -19 -2z"/>
<path d="M5200 2205 c-7 -8 -9 -15 -4 -15 4 0 0 -6 -11 -13 -14 -11 -15 -16
-5 -22 8 -5 11 -4 7 2 -4 6 0 14 9 17 9 4 14 9 11 13 -4 3 -2 12 4 20 6 7 9
13 6 13 -2 0 -10 -7 -17 -15z"/>
<path d="M5195 2141 c-3 -5 -2 -12 3 -15 5 -3 9 1 9 9 0 17 -3 19 -12 6z"/>
<path d="M5170 2110 c0 -5 5 -10 10 -10 6 0 10 5 10 10 0 6 -4 10 -10 10 -5 0
-10 -4 -10 -10z"/>
<path d="M5193 2072 c1 -14 5 -18 11 -12 7 7 6 14 -1 21 -9 9 -12 7 -10 -9z"/>
<path d="M5170 2030 c0 -5 5 -10 10 -10 6 0 10 5 10 10 0 6 -4 10 -10 10 -5 0
-10 -4 -10 -10z"/>
<path d="M5197 1999 c7 -7 15 -10 18 -7 3 3 -2 9 -12 12 -14 6 -15 5 -6 -5z"/>
<path d="M310 1991 c0 -6 4 -12 8 -15 5 -3 9 1 9 9 0 8 -4 15 -9 15 -4 0 -8
-4 -8 -9z"/>
<path d="M5120 1956 c6 -6 6 -14 0 -21 -5 -6 -5 -16 0 -25 7 -10 10 -11 10 -2
0 6 5 12 12 12 6 0 8 -3 5 -7 -4 -3 -2 -12 5 -20 9 -12 6 -13 -17 -9 -21 4
-25 2 -17 -6 8 -8 8 -15 1 -24 -7 -8 -7 -14 1 -19 8 -5 8 -11 -1 -21 -6 -8 -7
-14 -2 -14 5 0 10 -7 10 -15 0 -8 -5 -15 -11 -15 -6 0 -5 -4 3 -9 12 -8 12
-12 2 -25 -9 -11 -10 -16 -2 -16 13 0 10 -22 -4 -32 -6 -5 -5 -8 3 -8 7 0 11
-4 8 -8 -2 -4 11 -8 30 -9 34 -1 34 0 14 17 -11 9 -16 20 -13 24 4 4 -1 4 -12
0 -17 -7 -18 -6 -7 8 10 13 11 22 2 37 -7 15 -7 21 0 21 6 0 15 -10 20 -22 l9
-23 0 23 c1 12 -4 22 -10 22 -5 0 -7 4 -4 10 4 6 -1 7 -12 3 -16 -6 -16 -5 -4
10 11 14 11 20 1 32 -8 10 -9 15 -2 15 6 0 16 -8 21 -17 6 -10 11 -13 11 -6 0
6 -5 15 -10 18 -8 5 -8 11 -1 19 6 7 8 16 4 19 -3 4 0 7 8 7 12 0 12 2 0 9
-17 11 -23 39 -10 47 8 5 13 -9 10 -28 0 -5 4 -8 9 -8 14 0 13 13 -3 35 -10
12 -16 14 -21 7 -4 -7 -12 -12 -17 -12 -16 0 1 21 25 30 17 7 13 8 -16 7 -23
-1 -33 -6 -28 -11z m40 -92 c0 -2 -10 -9 -22 -15 -20 -11 -21 -10 -11 3 7 8
10 18 6 22 -4 4 0 4 10 0 9 -3 17 -8 17 -10z m-5 -184 c3 -5 2 -10 -4 -10 -5
0 -13 5 -16 10 -3 6 -2 10 4 10 5 0 13 -4 16 -10z"/>
<path d="M5197 1959 c7 -7 15 -10 18 -7 3 3 -2 9 -12 12 -14 6 -15 5 -6 -5z"/>
<path d="M5190 1935 c0 -7 30 -13 34 -7 3 4 -4 9 -15 9 -10 1 -19 0 -19 -2z"/>
<path d="M355 1901 c-3 -5 -2 -12 3 -15 5 -3 9 1 9 9 0 17 -3 19 -12 6z"/>
<path d="M5200 1885 c-7 -8 -9 -15 -4 -15 4 0 0 -6 -11 -13 -14 -11 -15 -16
-5 -22 8 -5 11 -4 7 2 -4 6 0 14 9 17 9 4 14 9 11 13 -4 3 -2 12 4 20 6 7 9
13 6 13 -2 0 -10 -7 -17 -15z"/>
<path d="M5195 1821 c-3 -5 -2 -12 3 -15 5 -3 9 1 9 9 0 17 -3 19 -12 6z"/>
<path d="M376 1812 c-3 -5 1 -9 9 -9 8 0 12 4 9 9 -3 4 -7 8 -9 8 -2 0 -6 -4
-9 -8z"/>
<path d="M5170 1790 c0 -5 5 -10 10 -10 6 0 10 5 10 10 0 6 -4 10 -10 10 -5 0
-10 -4 -10 -10z"/>
<path d="M5193 1752 c1 -14 5 -18 11 -12 7 7 6 14 -1 21 -9 9 -12 7 -10 -9z"/>
<path d="M5170 1710 c0 -5 5 -10 10 -10 6 0 10 5 10 10 0 6 -4 10 -10 10 -5 0
-10 -4 -10 -10z"/>
<path d="M440 1690 c-9 -6 -10 -10 -3 -10 6 0 15 5 18 10 8 12 4 12 -15 0z"/>
<path d="M5197 1679 c7 -7 15 -10 18 -7 3 3 -2 9 -12 12 -14 6 -15 5 -6 -5z"/>
<path d="M456 1663 c-6 -14 -5 -15 5 -6 7 7 10 15 7 18 -3 3 -9 -2 -12 -12z"/>
<path d="M480 1661 c0 -6 4 -13 10 -16 6 -3 7 1 4 9 -7 18 -14 21 -14 7z"/>
<path d="M5120 1636 c6 -6 6 -14 0 -21 -5 -6 -5 -16 0 -25 7 -10 10 -11 10 -2
0 6 5 12 12 12 6 0 8 -3 5 -7 -4 -3 -2 -12 5 -20 9 -12 6 -13 -17 -9 -21 4
-25 2 -17 -6 8 -8 8 -15 1 -24 -7 -8 -7 -14 1 -19 8 -5 8 -11 -1 -21 -6 -8 -7
-14 -2 -14 5 0 10 -7 10 -15 0 -8 -5 -15 -11 -15 -6 0 -5 -4 3 -9 12 -8 12
-12 2 -25 -9 -11 -10 -16 -2 -16 13 0 10 -22 -4 -32 -6 -5 -5 -8 3 -8 7 0 11
-4 8 -8 -2 -4 11 -8 30 -9 34 -1 34 0 14 17 -11 9 -16 20 -13 24 4 4 -1 4 -12
0 -17 -7 -18 -6 -7 8 10 13 11 22 2 37 -7 15 -7 21 0 21 6 0 15 -10 20 -22 l9
-23 0 23 c1 12 -4 22 -10 22 -5 0 -7 4 -4 10 4 6 -1 7 -12 3 -16 -6 -16 -5 -4
10 11 14 11 20 1 32 -8 10 -9 15 -2 15 6 0 16 -8 21 -17 6 -10 11 -13 11 -6 0
6 -5 15 -10 18 -8 5 -8 11 -1 19 6 7 8 16 4 19 -3 4 0 7 8 7 12 0 12 2 0 9
-17 11 -23 39 -10 47 8 5 13 -9 10 -28 0 -5 4 -8 9 -8 14 0 13 13 -3 35 -10
12 -16 14 -21 7 -4 -7 -12 -12 -17 -12 -16 0 1 21 25 30 17 7 13 8 -16 7 -23
-1 -33 -6 -28 -11z m40 -92 c0 -2 -10 -9 -22 -15 -20 -11 -21 -10 -11 3 7 8
10 18 6 22 -4 4 0 4 10 0 9 -3 17 -8 17 -10z m-5 -184 c3 -5 2 -10 -4 -10 -5
0 -13 5 -16 10 -3 6 -2 10 4 10 5 0 13 -4 16 -10z"/>
<path d="M5197 1639 c7 -7 15 -10 18 -7 3 3 -2 9 -12 12 -14 6 -15 5 -6 -5z"/>
<path d="M460 1636 c0 -2 8 -10 18 -17 15 -13 16 -12 3 4 -13 16 -21 21 -21
13z"/>
<path d="M530 1610 c0 -5 5 -10 11 -10 5 0 7 5 4 10 -3 6 -8 10 -11 10 -2 0
-4 -4 -4 -10z"/>
<path d="M5190 1615 c0 -7 30 -13 34 -7 3 4 -4 9 -15 9 -10 1 -19 0 -19 -2z"/>
<path d="M505 1589 c-4 -6 -5 -12 -2 -15 2 -3 7 2 10 11 7 17 1 20 -8 4z"/>
<path d="M5200 1565 c-7 -8 -9 -15 -4 -15 4 0 0 -6 -11 -13 -14 -11 -15 -16
-5 -22 8 -5 11 -4 7 2 -4 6 0 14 9 17 9 4 14 9 11 13 -4 3 -2 12 4 20 6 7 9
13 6 13 -2 0 -10 -7 -17 -15z"/>
<path d="M490 1555 c0 -5 5 -17 10 -25 5 -8 10 -10 10 -5 0 6 -5 17 -10 25 -5
8 -10 11 -10 5z"/>
<path d="M5195 1501 c-3 -5 -2 -12 3 -15 5 -3 9 1 9 9 0 17 -3 19 -12 6z"/>
<path d="M607 1472 c-10 -10 -17 -23 -17 -28 0 -5 5 -1 11 9 8 14 14 15 32 7
20 -10 20 -10 5 3 -10 8 -15 17 -11 20 3 4 4 7 1 7 -3 0 -12 -8 -21 -18z"/>
<path d="M5170 1470 c0 -5 5 -10 10 -10 6 0 10 5 10 10 0 6 -4 10 -10 10 -5 0
-10 -4 -10 -10z"/>
<path d="M615 1437 c7 -16 45 -20 45 -5 0 6 -3 8 -6 5 -4 -3 -15 -2 -25 4 -14
7 -17 6 -14 -4z"/>
<path d="M5193 1432 c1 -14 5 -18 11 -12 7 7 6 14 -1 21 -9 9 -12 7 -10 -9z"/>
<path d="M597 1417 c-3 -8 1 -14 8 -14 7 0 11 6 8 14 -3 7 -6 13 -8 13 -2 0
-5 -6 -8 -13z"/>
<path d="M635 1399 c-4 -6 -5 -12 -2 -15 2 -3 7 2 10 11 7 17 1 20 -8 4z"/>
<path d="M656 1395 c-3 -8 -1 -15 4 -15 6 0 10 7 10 15 0 8 -2 15 -4 15 -2 0
-6 -7 -10 -15z"/>
<path d="M5170 1390 c0 -5 5 -10 10 -10 6 0 10 5 10 10 0 6 -4 10 -10 10 -5 0
-10 -4 -10 -10z"/>
<path d="M5197 1359 c7 -7 15 -10 18 -7 3 3 -2 9 -12 12 -14 6 -15 5 -6 -5z"/>
<path d="M624 1328 c10 -6 22 -6 26 -2 5 5 -3 10 -18 11 -22 1 -24 0 -8 -9z"/>
<path d="M5120 1316 c6 -6 6 -14 0 -21 -5 -6 -5 -16 0 -25 7 -10 10 -11 10 -2
0 6 5 12 12 12 6 0 8 -3 5 -7 -4 -3 -2 -12 5 -20 9 -12 6 -13 -17 -9 -21 4
-25 2 -17 -6 8 -8 8 -15 1 -24 -7 -8 -7 -14 1 -19 8 -5 8 -11 -1 -21 -6 -8 -7
-14 -2 -14 5 0 10 -7 10 -15 0 -8 -5 -15 -11 -15 -6 0 -5 -4 3 -9 12 -8 12
-12 2 -25 -9 -11 -10 -16 -2 -16 13 0 10 -22 -4 -32 -6 -5 -5 -8 3 -8 7 0 11
-4 8 -8 -2 -4 11 -8 30 -9 34 -1 34 0 14 17 -11 9 -16 20 -13 24 4 4 -1 4 -12
0 -17 -7 -18 -6 -7 8 10 13 11 22 2 37 -7 15 -7 21 0 21 6 0 15 -10 20 -22 l9
-23 0 23 c1 12 -4 22 -10 22 -5 0 -7 4 -4 10 4 6 -1 7 -12 3 -16 -6 -16 -5 -4
10 11 14 11 20 1 32 -8 10 -9 15 -2 15 6 0 16 -8 21 -17 6 -10 11 -13 11 -6 0
6 -5 15 -10 18 -8 5 -8 11 -1 19 6 7 8 16 4 19 -3 4 0 7 8 7 12 0 12 2 0 9
-17 11 -23 39 -10 47 8 5 13 -9 10 -28 0 -5 4 -8 9 -8 14 0 13 13 -3 35 -10
12 -16 14 -21 7 -4 -7 -12 -12 -17 -12 -16 0 1 21 25 30 17 7 13 8 -16 7 -23
-1 -33 -6 -28 -11z m40 -92 c0 -2 -10 -9 -22 -15 -20 -11 -21 -10 -11 3 7 8
10 18 6 22 -4 4 0 4 10 0 9 -3 17 -8 17 -10z m-5 -184 c3 -5 2 -10 -4 -10 -5
0 -13 5 -16 10 -3 6 -2 10 4 10 5 0 13 -4 16 -10z"/>
<path d="M5197 1319 c7 -7 15 -10 18 -7 3 3 -2 9 -12 12 -14 6 -15 5 -6 -5z"/>
<path d="M715 1310 c-19 -8 -19 -9 3 -9 12 -1 22 4 22 9 0 6 -1 10 -2 9 -2 0
-12 -4 -23 -9z"/>
<path d="M5190 1295 c0 -7 30 -13 34 -7 3 4 -4 9 -15 9 -10 1 -19 0 -19 -2z"/>
<path d="M666 1272 c-2 -4 4 -8 14 -8 10 0 16 4 14 8 -3 4 -9 8 -14 8 -5 0
-11 -4 -14 -8z"/>
<path d="M775 1236 c-16 -13 -28 -26 -25 -28 3 -2 18 9 35 24 36 34 31 37 -10
4z"/>
<path d="M5200 1245 c-7 -8 -9 -15 -4 -15 4 0 0 -6 -11 -13 -14 -11 -15 -16
-5 -22 8 -5 11 -4 7 2 -4 6 0 14 9 17 9 4 14 9 11 13 -4 3 -2 12 4 20 6 7 9
13 6 13 -2 0 -10 -7 -17 -15z"/>
<path d="M710 1226 c7 -7 13 -7 20 0 6 6 3 10 -10 10 -13 0 -16 -4 -10 -10z"/>
<path d="M5195 1181 c-3 -5 -2 -12 3 -15 5 -3 9 1 9 9 0 17 -3 19 -12 6z"/>
<path d="M824 1145 c-18 -14 -18 -14 4 -8 12 3 22 9 22 14 0 12 -3 11 -26 -6z"/>
<path d="M5170 1150 c0 -5 5 -10 10 -10 6 0 10 5 10 10 0 6 -4 10 -10 10 -5 0
-10 -4 -10 -10z"/>
<path d="M5193 1112 c1 -14 5 -18 11 -12 7 7 6 14 -1 21 -9 9 -12 7 -10 -9z"/>
<path d="M799 1103 c-13 -16 -12 -17 4 -4 9 7 17 15 17 17 0 8 -8 3 -21 -13z"/>
<path d="M870 1100 c0 -6 7 -10 15 -10 8 0 15 2 15 4 0 2 -7 6 -15 10 -8 3
-15 1 -15 -4z"/>
<path d="M5170 1070 c0 -5 5 -10 10 -10 6 0 10 5 10 10 0 6 -4 10 -10 10 -5 0
-10 -4 -10 -10z"/>
<path d="M930 1061 c0 -5 5 -13 10 -16 6 -3 10 -2 10 4 0 5 -4 13 -10 16 -5 3
-10 2 -10 -4z"/>
<path d="M860 1055 c0 -2 6 -8 13 -14 10 -8 14 -7 14 2 0 8 -6 14 -14 14 -7 0
-13 -1 -13 -2z"/>
<path d="M5197 1039 c7 -7 15 -10 18 -7 3 3 -2 9 -12 12 -14 6 -15 5 -6 -5z"/>
<path d="M1050 1036 c0 -2 8 -10 18 -17 15 -13 16 -12 3 4 -13 16 -21 21 -21
13z"/>
<path d="M915 1010 c3 -5 8 -10 11 -10 2 0 4 5 4 10 0 6 -5 10 -11 10 -5 0 -7
-4 -4 -10z"/>
<path d="M975 1010 c3 -5 11 -10 16 -10 6 0 7 5 4 10 -3 6 -11 10 -16 10 -6 0
-7 -4 -4 -10z"/>
<path d="M5120 996 c6 -6 6 -14 0 -21 -5 -6 -5 -16 0 -25 7 -10 10 -11 10 -2
0 6 5 12 12 12 6 0 8 -3 5 -7 -4 -3 -2 -12 5 -20 9 -12 6 -13 -17 -9 -21 4
-25 2 -17 -6 8 -8 8 -15 1 -24 -7 -8 -7 -14 1 -19 8 -5 8 -11 -1 -21 -6 -8 -7
-14 -2 -14 5 0 10 -7 10 -15 0 -8 -5 -15 -11 -15 -6 0 -5 -4 3 -9 12 -8 12
-12 2 -25 -8 -9 -9 -16 -4 -16 5 0 10 -7 10 -15 0 -8 -5 -15 -11 -15 -6 0 -5
-4 3 -9 12 -8 12 -12 2 -25 -8 -9 -9 -16 -4 -16 5 0 10 -7 10 -15 0 -8 -5 -15
-11 -15 -6 0 -5 -4 3 -9 12 -8 12 -12 2 -25 -8 -9 -9 -16 -4 -16 5 0 10 -7 10
-15 0 -8 -5 -15 -10 -15 -5 0 2 -10 17 -21 15 -12 25 -24 22 -27 -3 -2 -12 1
-21 8 -16 13 -17 12 -19 -17 -2 -30 -15 -42 -41 -37 -18 3 -29 -2 -40 -20 -9
-14 -22 -23 -29 -20 -15 6 -30 -22 -20 -37 3 -5 2 -14 -2 -21 -5 -7 -19 2 -41
28 -18 21 -33 33 -33 27 0 -7 6 -13 13 -13 6 0 4 -5 -6 -11 -15 -9 -24 -6 -47
16 -18 17 -30 23 -35 16 -3 -6 -20 -9 -38 -6 -31 6 -31 6 -12 -15 22 -25 29
-26 21 -2 -6 16 -5 16 7 0 9 -11 18 -14 28 -7 12 7 12 9 0 9 -8 0 -12 3 -8 6
3 3 14 1 24 -5 11 -6 13 -11 5 -11 -7 0 -10 -5 -7 -10 4 -6 11 -8 16 -4 6 3
21 -4 34 -16 15 -14 28 -19 37 -14 10 6 10 4 -1 -9 -16 -20 -36 -23 -25 -4 4
6 4 9 -1 5 -4 -4 -14 -3 -22 4 -8 6 -13 7 -11 2 2 -5 -1 -10 -7 -11 -5 -1 -8
6 -7 15 3 13 1 14 -12 3 -8 -7 -20 -10 -25 -6 -7 4 -8 0 -5 -10 4 -9 9 -14 12
-11 9 10 41 -14 36 -27 -3 -8 2 -14 10 -14 8 0 12 6 8 15 -3 10 -1 13 6 8 7
-4 12 -13 12 -20 0 -8 7 -19 15 -26 13 -11 14 -10 10 2 -3 8 1 20 9 27 13 11
15 9 11 -18 -2 -17 0 -33 5 -36 5 -3 7 7 4 21 -4 24 -3 26 10 14 9 -7 14 -15
12 -19 -2 -3 8 -7 22 -8 24 -1 25 0 7 10 -29 16 -48 37 -41 44 3 4 17 -3 29
-16 16 -14 30 -19 42 -15 14 6 16 4 10 -6 -5 -9 -4 -11 4 -6 18 12 1 27 -22
21 l-22 -6 22 18 c24 19 25 46 3 80 -11 16 -11 16 -6 -2 6 -19 5 -19 -8 -2 -8
10 -16 14 -18 10 -3 -4 -3 -2 -1 5 1 7 -2 10 -7 7 -6 -3 -10 -1 -10 4 0 15 13
14 29 -1 12 -11 13 -9 7 7 -6 20 -6 20 9 1 8 -11 15 -14 15 -7 0 7 5 9 11 5 8
-4 7 -9 -2 -15 -11 -7 -8 -14 14 -34 17 -16 28 -21 29 -13 0 7 2 18 3 23 2 6
3 16 4 23 0 7 6 10 11 7 6 -4 8 -11 5 -16 -4 -5 -1 -9 5 -9 7 0 9 7 6 16 -7
17 11 47 24 39 4 -2 6 16 5 40 -1 25 3 45 7 45 5 0 -4 11 -19 25 -15 13 -23
25 -17 25 6 0 17 -7 24 -15 7 -8 17 -15 23 -15 5 0 0 8 -11 19 -12 10 -18 21
-15 25 4 4 -1 4 -12 0 -17 -7 -18 -6 -7 8 10 13 11 22 2 37 -7 15 -7 21 0 21
6 0 15 -10 20 -22 l9 -23 0 23 c1 12 -4 22 -10 22 -5 0 -7 4 -4 10 4 6 -1 7
-12 4 -14 -4 -13 -2 5 14 23 21 30 52 11 52 -5 0 -7 4 -4 10 4 6 -1 7 -12 3
-16 -6 -16 -5 -5 9 10 13 11 22 2 37 -7 15 -7 21 0 21 6 0 15 -10 20 -22 l9
-23 0 23 c1 12 -4 22 -10 22 -5 0 -7 4 -4 10 4 6 -1 7 -12 3 -16 -6 -16 -5 -4
10 11 14 11 20 1 32 -8 10 -9 15 -2 15 6 0 16 -8 21 -17 6 -10 11 -13 11 -6 0
6 -5 15 -10 18 -8 5 -8 11 -1 19 6 7 8 16 4 19 -3 4 0 7 8 7 12 0 12 2 0 9
-17 11 -23 39 -10 47 8 5 13 -9 10 -28 0 -5 4 -8 9 -8 14 0 13 13 -3 35 -10
12 -16 14 -21 7 -4 -7 -12 -12 -17 -12 -16 0 1 21 25 30 17 7 13 8 -16 7 -23
-1 -33 -6 -28 -11z m40 -92 c0 -2 -10 -9 -22 -15 -20 -11 -21 -10 -11 3 7 8
10 18 6 22 -4 4 0 4 10 0 9 -3 17 -8 17 -10z m-4 -185 c3 -6 0 -18 -9 -26 -13
-14 -15 -13 -14 11 2 27 11 34 23 15z m0 -243 c-1 -22 -10 -36 -32 -51 -23
-16 -30 -27 -27 -45 2 -19 1 -22 -7 -10 -5 8 -10 11 -10 7 0 -5 -5 -5 -10 -2
-8 5 -8 11 0 20 11 13 -2 29 -22 30 -12 0 -10 20 2 21 23 3 24 5 10 14 -12 8
-9 9 10 6 34 -5 61 15 55 42 -3 18 -1 20 14 10 12 -7 18 -22 17 -42z m-197
-100 c11 -10 22 -13 25 -8 7 12 24 10 50 -4 16 -10 17 -12 2 -17 -12 -5 -15
-3 -10 6 6 9 5 9 -8 0 -8 -7 -19 -9 -23 -5 -5 4 -5 2 -1 -5 3 -6 18 -10 31 -7
14 2 25 0 25 -6 0 -6 -4 -9 -9 -6 -5 3 -12 -2 -16 -12 -6 -15 -8 -15 -25 6
-11 13 -21 18 -25 12 -3 -6 -10 -8 -15 -5 -4 3 -13 -2 -20 -10 -11 -14 -15
-13 -27 5 -8 11 -19 17 -25 14 -7 -5 -8 -2 -4 5 6 9 12 9 25 -3 15 -14 18 -13
27 2 15 23 16 37 5 37 -6 0 -15 5 -22 12 -19 19 17 10 40 -11z"/>
<path d="M5120 471 c-13 -11 -27 -18 -31 -15 -4 2 -12 -2 -18 -10 -9 -10 -7
-17 6 -27 9 -8 14 -9 10 -2 -4 6 -3 14 3 18 5 3 10 0 10 -7 0 -9 3 -9 8 -2 4
6 16 16 27 22 12 7 14 12 6 12 -11 0 -11 3 -1 15 17 20 10 19 -20 -4z m10 -15
c0 -2 -7 -7 -16 -10 -8 -3 -12 -2 -9 4 6 10 25 14 25 6z"/>
<path d="M4984 358 c-3 -5 -9 -6 -14 -3 -4 3 -13 -2 -19 -9 -10 -11 -9 -14 2
-12 8 1 21 7 29 14 8 6 17 9 20 6 3 -3 8 -1 12 4 3 5 -2 9 -10 9 -8 0 -17 -4
-20 -9z"/>
<path d="M5197 999 c7 -7 15 -10 18 -7 3 3 -2 9 -12 12 -14 6 -15 5 -6 -5z"/>
<path d="M955 990 c-3 -5 -1 -10 4 -10 6 0 11 5 11 10 0 6 -2 10 -4 10 -3 0
-8 -4 -11 -10z"/>
<path d="M1116 972 c-3 -5 1 -9 9 -9 8 0 12 4 9 9 -3 4 -7 8 -9 8 -2 0 -6 -4
-9 -8z"/>
<path d="M5190 975 c0 -7 30 -13 34 -7 3 4 -4 9 -15 9 -10 1 -19 0 -19 -2z"/>
<path d="M994 935 c0 -13 3 -22 7 -19 8 4 6 30 -2 38 -3 3 -5 -5 -5 -19z"/>
<path d="M5200 925 c-7 -8 -9 -15 -4 -15 4 0 0 -6 -11 -13 -14 -11 -15 -16 -5
-22 8 -5 11 -4 7 2 -4 6 0 14 9 17 9 4 14 9 11 13 -4 3 -2 12 4 20 6 7 9 13 6
13 -2 0 -10 -7 -17 -15z"/>
<path d="M1219 897 c6 -8 7 -18 3 -23 -4 -5 -3 -6 2 -2 5 4 16 2 25 -4 9 -7 5
0 -8 15 -25 27 -43 39 -22 14z"/>
<path d="M1068 883 c6 -2 18 -2 25 0 6 3 1 5 -13 5 -14 0 -19 -2 -12 -5z"/>
<path d="M5195 861 c-3 -5 -2 -12 3 -15 5 -3 9 1 9 9 0 17 -3 19 -12 6z"/>
<path d="M1110 839 c0 -5 -5 -7 -12 -3 -7 4 -8 3 -4 -5 6 -9 11 -9 22 0 17 14
18 19 4 19 -5 0 -10 -5 -10 -11z"/>
<path d="M1310 836 c0 -2 7 -9 15 -16 13 -11 14 -10 9 4 -5 14 -24 23 -24 12z"/>
<path d="M5170 830 c0 -5 5 -10 10 -10 6 0 10 5 10 10 0 6 -4 10 -10 10 -5 0
-10 -4 -10 -10z"/>
<path d="M5193 792 c1 -14 5 -18 11 -12 7 7 6 14 -1 21 -9 9 -12 7 -10 -9z"/>
<path d="M1136 788 c3 -5 10 -6 15 -3 13 9 11 12 -6 12 -8 0 -12 -4 -9 -9z"/>
<path d="M1170 771 c0 -6 4 -13 10 -16 6 -3 7 1 4 9 -7 18 -14 21 -14 7z"/>
<path d="M1389 767 c7 -7 16 -13 22 -13 5 -1 10 -2 12 -4 9 -7 36 -6 31 1 -3
5 -9 7 -14 4 -5 -3 -12 0 -17 7 -4 7 -16 14 -27 15 -14 1 -15 -2 -7 -10z"/>
<path d="M5170 750 c0 -5 5 -10 10 -10 6 0 10 5 10 10 0 6 -4 10 -10 10 -5 0
-10 -4 -10 -10z"/>
<path d="M1180 730 c8 -5 20 -10 25 -10 6 0 3 5 -5 10 -8 5 -19 10 -25 10 -5
0 -3 -5 5 -10z"/>
<path d="M1260 720 c6 -11 13 -20 16 -20 2 0 0 9 -6 20 -6 11 -13 20 -16 20
-2 0 0 -9 6 -20z"/>
<path d="M1509 720 c-2 -13 -6 -29 -9 -32 -18 -23 10 -101 34 -92 8 3 16 -3
19 -15 3 -12 11 -21 19 -20 10 0 10 2 1 6 -7 2 -13 9 -13 14 0 6 8 5 20 -1 10
-6 17 -16 14 -24 -3 -7 2 -19 10 -26 13 -10 17 -10 22 3 5 15 12 15 64 2 8 -2
17 -4 20 -4 3 -1 -1 -5 -8 -10 -11 -7 -11 -9 0 -13 7 -3 27 3 43 13 17 11 24
19 17 19 -7 0 -11 4 -7 9 3 5 1 12 -4 16 -6 3 -7 13 -4 23 6 14 4 15 -9 4 -9
-7 -28 -15 -43 -18 -25 -4 -26 -4 -11 12 15 15 15 18 1 34 -8 9 -12 21 -8 26
5 5 -1 1 -13 -9 -11 -9 -24 -14 -28 -10 -7 8 -11 9 -37 12 -8 1 -7 6 1 16 8
10 9 19 4 25 -13 12 -57 -26 -48 -42 4 -7 4 -10 -1 -6 -4 4 -14 3 -22 -4 -7
-6 -17 -8 -20 -4 -4 4 -1 11 7 16 8 5 15 19 15 32 0 13 4 29 9 37 6 10 6 12
-2 7 -7 -4 -12 -2 -12 3 0 14 -20 14 -21 1z m13 -37 c-9 -4 -10 -9 -2 -18 8
-9 7 -14 -3 -18 -9 -3 -13 2 -11 16 3 29 2 27 17 26 9 0 9 -2 -1 -6z m64 -22
c-17 -18 -17 -19 1 -25 10 -3 23 -6 28 -7 6 0 15 -5 22 -10 7 -7 14 -6 18 1 5
8 11 8 21 -1 13 -10 12 -14 -1 -29 -19 -21 -8 -31 24 -25 29 5 48 -3 48 -20 0
-8 -3 -13 -5 -10 -3 3 -11 -3 -19 -13 -8 -9 -12 -12 -10 -7 3 6 -1 19 -9 30
-8 10 -14 13 -14 7 0 -9 -5 -10 -19 -3 -10 6 -21 8 -23 5 -3 -2 -4 6 -3 19 2
18 -2 23 -21 23 -18 0 -21 -3 -12 -13 5 -7 14 -10 19 -7 5 3 4 -6 -2 -20 -12
-24 -35 -26 -26 -2 9 24 -23 48 -65 50 -12 0 -14 4 -6 13 7 9 15 10 29 2 10
-5 19 -6 19 -2 0 4 4 2 9 -6 6 -9 11 -10 15 -2 6 10 0 13 -20 10 -17 -2 -22
27 -7 43 9 10 18 18 21 18 3 0 -3 -9 -12 -19z"/>
<path d="M1616 612 c-3 -5 1 -9 9 -9 8 0 12 4 9 9 -3 4 -7 8 -9 8 -2 0 -6 -4
-9 -8z"/>
<path d="M1659 618 c0 -2 -2 -11 -4 -21 -3 -15 -1 -16 11 -6 7 6 11 15 8 20
-5 9 -13 12 -15 7z"/>
<path d="M5196 717 c3 -8 11 -14 19 -14 20 0 19 4 -5 17 -15 8 -18 8 -14 -3z"/>
<path d="M1297 706 c-4 -10 -1 -13 9 -9 15 6 19 23 5 23 -5 0 -11 -7 -14 -14z"/>
<path d="M1296 668 c3 -5 10 -6 15 -3 13 9 11 12 -6 12 -8 0 -12 -4 -9 -9z"/>
<path d="M5170 670 c0 -5 5 -10 10 -10 6 0 10 5 10 10 0 6 -4 10 -10 10 -5 0
-10 -4 -10 -10z"/>
<path d="M1320 650 c-9 -6 -10 -10 -3 -10 6 0 15 5 18 10 8 12 4 12 -15 0z"/>
<path d="M5193 633 c1 -15 5 -19 13 -13 6 6 15 6 19 2 5 -4 5 -1 1 6 -4 7 -11
10 -16 7 -4 -3 -10 1 -13 7 -3 7 -4 3 -4 -9z"/>
<path d="M1353 625 c0 -8 4 -12 9 -9 4 3 8 9 8 15 0 5 -4 9 -8 9 -5 0 -9 -7
-9 -15z"/>
<path d="M1773 610 c1 -12 7 -18 14 -16 16 6 27 -10 13 -19 -8 -5 -7 -11 1
-21 10 -12 14 -12 20 -2 7 11 9 11 9 0 0 -7 4 -11 9 -8 4 3 17 -2 27 -10 10
-9 12 -12 4 -8 -12 7 -11 2 3 -19 l17 -27 -32 19 c-17 11 -36 17 -41 14 -6 -4
-7 -1 -2 7 6 9 4 11 -5 5 -9 -5 -11 -4 -6 4 4 6 4 10 -1 9 -4 -2 -9 1 -10 6
-1 5 -7 13 -15 17 -10 7 -10 9 2 9 13 0 13 2 0 9 -23 15 -31 2 -15 -23 15 -22
14 -24 -11 -41 -24 -15 -25 -19 -10 -27 9 -5 14 -13 11 -19 -4 -5 -1 -9 4 -9
14 0 14 17 1 25 -5 3 -10 11 -10 17 0 7 4 7 13 -1 8 -6 24 -9 36 -6 14 3 21 0
18 -8 -2 -7 -13 -10 -23 -9 -15 3 -14 0 6 -15 35 -28 56 -33 70 -20 10 9 12 9
7 -4 -3 -9 -1 -22 3 -30 9 -14 10 -12 11 49 0 19 3 21 15 11 9 -7 11 -16 5
-23 -10 -13 -11 -47 0 -40 4 2 10 -4 12 -13 4 -16 5 -16 6 -1 0 9 -3 20 -9 23
-5 3 -10 12 -10 18 1 7 9 2 20 -11 10 -13 23 -24 27 -25 4 -1 7 -6 5 -10 -1
-5 2 -6 8 -2 6 3 8 10 5 15 -3 5 -1 11 5 15 5 3 10 1 10 -5 0 -6 5 -8 11 -4 8
4 9 -1 5 -17 l-7 -24 14 23 c14 24 30 21 20 -4 -3 -8 6 -4 20 8 19 17 23 26
15 35 -6 7 -14 11 -18 8 -5 -3 -11 -1 -14 4 -3 5 1 12 9 15 12 4 13 11 7 23
-5 10 -8 29 -6 42 4 20 2 22 -11 11 -16 -13 -21 -35 -7 -26 5 3 9 -2 9 -10 0
-10 -4 -11 -11 -4 -13 13 -36 13 -36 -1 0 -5 5 -7 10 -4 6 3 13 -1 16 -9 3 -9
11 -13 17 -9 6 3 7 1 3 -6 -4 -6 -12 -8 -18 -5 -7 5 -8 2 -3 -7 7 -12 6 -12
-7 -1 -13 10 -17 10 -22 0 -3 -7 -3 -2 0 12 4 20 3 22 -6 10 -10 -13 -11 -13
-7 1 3 9 -1 16 -8 16 -7 0 -12 -5 -11 -11 2 -6 1 -8 -1 -3 -3 4 -9 5 -13 2 -5
-3 -12 0 -16 6 -5 8 -3 9 6 4 9 -6 11 -4 5 5 -6 9 -4 11 5 5 8 -5 11 -4 6 3
-3 6 -1 14 5 18 7 4 9 3 5 -4 -3 -6 -2 -13 3 -16 5 -3 11 1 15 9 8 22 -13 29
-34 10 -12 -11 -20 -13 -25 -5 -3 5 -11 7 -17 4 -7 -5 -9 -1 -5 8 8 23 -23 47
-56 43 -23 -3 -27 0 -22 15 4 11 -3 23 -19 33 -23 16 -25 16 -23 -3z m108 -67
c13 -16 12 -17 -3 -4 -17 13 -22 21 -14 21 2 0 10 -8 17 -17z m-83 -26 c8 -10
6 -13 -9 -14 -19 -2 -25 8 -12 20 8 9 9 9 21 -6z m45 -30 c-4 -6 0 -8 10 -4
11 4 21 -1 28 -16 7 -12 8 -19 4 -15 -5 4 -13 4 -19 -1 -6 -5 -21 -5 -35 0
-19 8 -21 12 -11 24 6 8 9 19 5 24 -3 7 0 8 9 5 9 -3 13 -11 9 -17z m72 4 c0
-15 35 -42 45 -36 12 7 22 -27 12 -37 -5 -5 -19 0 -33 11 -13 11 -20 20 -15
21 6 0 -3 13 -18 29 -23 24 -25 29 -10 27 11 -2 19 -8 19 -15z m95 -63 c0 -10
3 -9 9 1 6 9 11 10 15 2 4 -6 11 -9 16 -6 5 3 12 0 16 -6 4 -8 3 -9 -4 -5 -7
4 -12 2 -12 -4 0 -7 -5 -8 -12 -3 -13 8 -18 9 -38 12 -5 0 -10 6 -10 11 0 6 5
10 10 10 6 0 10 -6 10 -12z"/>
<path d="M1855 470 c-3 -5 -1 -10 4 -10 6 0 11 5 11 10 0 6 -2 10 -4 10 -3 0
-8 -4 -11 -10z"/>
<path d="M1947 439 c7 -7 15 -10 18 -7 3 3 -2 9 -12 12 -14 6 -15 5 -6 -5z"/>
<path d="M1456 607 c3 -10 9 -15 12 -12 3 3 0 11 -7 18 -10 9 -11 8 -5 -6z"/>
<path d="M1705 603 c-8 -23 -6 -24 15 -13 11 6 20 14 20 19 0 13 -29 8 -35 -6z"/>
<path d="M1750 610 c0 -5 5 -10 11 -10 5 0 7 5 4 10 -3 6 -8 10 -11 10 -2 0
-4 -4 -4 -10z"/>
<path d="M5170 590 c0 -5 5 -10 10 -10 6 0 10 5 10 10 0 6 -4 10 -10 10 -5 0
-10 -4 -10 -10z"/>
<path d="M5197 559 c7 -7 15 -10 18 -7 3 3 -2 9 -12 12 -14 6 -15 5 -6 -5z"/>
<path d="M1947 553 c-4 -3 3 -11 16 -18 12 -6 21 -17 20 -23 -2 -7 4 -9 14 -5
14 6 14 8 -5 23 -12 10 -18 20 -15 24 4 3 0 6 -9 6 -8 0 -18 -3 -21 -7z"/>
<path d="M5239 543 c-13 -16 -12 -17 4 -4 9 7 17 15 17 17 0 8 -8 3 -21 -13z"/>
<path d="M1516 528 c3 -5 10 -6 15 -3 13 9 11 12 -6 12 -8 0 -12 -4 -9 -9z"/>
<path d="M1554 524 c1 -7 6 -17 10 -21 4 -4 6 -1 4 7 -2 9 3 14 12 12 8 -2 11
0 7 4 -13 14 -35 12 -33 -2z"/>
<path d="M1820 534 c0 -2 9 -8 20 -14 15 -8 18 -8 14 3 -4 11 -34 21 -34 11z"/>
<path d="M1630 516 l-25 -14 27 1 c14 1 24 5 22 9 -2 3 2 9 8 11 7 3 9 6 3 6
-5 0 -21 -6 -35 -13z"/>
<path d="M2108 513 c0 -10 -1 -24 -1 -30 1 -9 -4 -10 -18 -2 -11 5 -19 8 -20
7 -7 -28 -5 -46 6 -58 14 -16 13 -51 -2 -74 -4 -7 0 -3 10 8 10 10 22 26 27
35 5 9 12 13 15 9 4 -4 -3 -22 -16 -40 -13 -19 -16 -27 -7 -20 12 9 18 10 23
2 4 -6 14 -9 22 -6 11 5 13 2 9 -11 -6 -14 -5 -15 5 -6 10 10 9 16 -1 28 -7 8
-10 18 -8 21 3 3 15 -7 27 -22 12 -15 21 -21 21 -13 1 10 4 9 14 -3 7 -10 17
-18 21 -18 5 0 0 9 -10 20 -10 11 -13 20 -7 20 6 0 14 -4 17 -10 6 -10 43 6
57 25 4 6 8 8 9 5 0 -3 2 -13 4 -23 2 -13 -1 -16 -14 -12 -10 3 -23 0 -29 -8
-8 -10 -6 -16 11 -27 20 -12 21 -12 8 4 -8 9 -11 20 -7 23 4 4 11 1 15 -6 6
-9 11 -10 15 -2 8 13 26 5 26 -10 0 -6 -5 -7 -12 -3 -7 4 -8 3 -4 -4 11 -18
27 -14 25 6 -3 31 1 43 11 37 6 -4 8 -11 5 -16 -4 -5 1 -19 11 -31 14 -20 16
-20 9 -3 -11 32 -11 37 1 42 10 3 14 -9 15 -51 0 -24 12 -12 15 17 1 12 3 24
3 26 1 3 8 -4 16 -15 10 -13 13 -14 10 -3 -4 10 0 16 10 16 9 0 14 -6 11 -14
-3 -8 -1 -11 4 -8 6 3 10 0 10 -7 0 -11 2 -10 9 0 7 11 9 11 14 -2 4 -10 1
-16 -8 -16 -8 0 -15 -5 -15 -11 0 -5 -4 -8 -8 -5 -5 3 -9 -1 -9 -9 0 -9 13 -4
38 15 43 35 50 37 43 13 -5 -17 -5 -17 9 -1 8 10 17 15 20 11 4 -3 8 -1 8 5 1
7 2 17 3 24 0 6 7 13 14 16 7 2 12 0 10 -5 -1 -4 3 -18 10 -30 11 -20 10 -23
-5 -24 -12 0 -13 -2 -5 -6 7 -3 22 3 32 12 18 16 20 16 26 1 3 -9 10 -13 15
-10 6 3 8 -6 5 -20 -3 -14 -1 -28 3 -30 18 -11 4 54 -14 68 -11 9 -16 16 -11
16 5 0 2 7 -5 17 -13 15 -12 15 9 4 12 -7 20 -17 16 -23 -4 -6 -3 -8 4 -4 6 3
13 -3 17 -14 5 -17 10 -19 21 -9 11 9 14 9 14 -1 0 -9 7 -7 20 5 25 22 26 9 3
-19 -18 -20 -18 -20 8 0 16 11 24 25 21 34 -5 13 -3 13 11 1 22 -17 22 -28 0
-34 -17 -4 -17 -5 -1 -6 10 0 23 8 30 19 12 18 13 18 32 2 11 -9 16 -11 12 -5
-4 8 -1 13 8 13 8 0 16 -3 19 -7 2 -5 2 -3 1 4 -2 7 1 15 6 18 10 6 14 -7 11
-32 -1 -6 3 -14 9 -18 6 -4 7 1 3 11 -5 13 -3 15 8 8 20 -12 40 -14 33 -3 -3
5 -10 7 -15 4 -14 -9 -11 8 7 33 8 12 20 19 26 16 7 -4 4 -10 -6 -16 -14 -8
-15 -13 -5 -24 6 -8 17 -14 23 -14 6 0 3 7 -7 14 -15 11 -15 15 -3 19 9 4 17
-2 21 -14 5 -16 10 -18 21 -8 11 9 15 8 18 -2 13 -41 14 -43 15 -23 1 11 -4
25 -11 32 -10 9 -8 16 6 30 18 16 19 16 13 0 -4 -10 -4 -24 -1 -32 5 -12 12
-11 40 6 19 11 34 16 34 11 0 -5 -11 -16 -25 -23 -14 -7 -25 -17 -25 -22 0
-13 12 -9 26 9 12 17 13 16 23 -7 6 -15 10 -19 10 -9 1 9 8 22 16 29 13 10 19
9 36 -6 17 -16 19 -16 13 -1 -3 9 -11 17 -18 17 -6 0 -4 5 4 10 18 12 30 13
29 3 -3 -21 2 -33 12 -27 7 4 9 0 5 -14 -4 -11 -2 -23 3 -27 7 -4 8 1 4 11 -5
12 -3 15 6 9 10 -6 11 -3 2 14 -7 11 -16 21 -22 21 -6 0 -7 5 -3 12 5 8 13 5
25 -10 17 -22 36 -31 24 -12 -6 9 8 14 28 11 5 -1 6 3 2 9 -3 5 -1 10 6 10 6
0 9 -8 6 -19 -3 -13 -1 -18 9 -14 7 2 10 12 7 21 -4 9 -3 14 2 10 4 -4 14 -3
22 4 11 9 18 8 31 -5 10 -11 12 -17 4 -17 -7 0 -12 5 -12 10 0 14 -17 12 -23
-3 -3 -9 8 -12 42 -11 60 2 63 2 57 13 -3 5 2 15 11 22 14 12 15 11 8 -10 -6
-19 -4 -23 8 -18 17 6 32 -7 41 -38 3 -12 4 -9 2 7 -2 16 3 33 12 40 13 11 14
9 7 -11 -5 -16 -4 -21 4 -17 6 4 11 14 11 22 0 8 5 14 11 14 5 0 7 -5 3 -12
-4 -6 -3 -8 4 -4 6 3 15 -2 21 -11 6 -10 11 -13 11 -7 0 5 -5 15 -12 22 -7 7
-8 12 -2 12 17 0 33 -22 27 -39 -4 -14 -3 -14 6 -1 10 14 16 7 12 -14 -1 -5 5
-3 14 4 13 11 18 10 30 -6 14 -17 14 -17 4 8 -10 22 -15 25 -26 17 -7 -6 -13
-7 -13 -2 0 8 39 46 41 40 0 -1 2 -11 4 -22 2 -11 8 -21 14 -23 5 -2 8 -9 5
-17 -3 -7 -1 -16 5 -20 7 -4 8 0 4 11 -5 13 -3 15 8 9 12 -8 12 -6 0 9 -12 15
-12 19 3 34 17 16 18 16 11 -8 -7 -23 -7 -23 9 -7 10 9 21 15 26 12 5 -3 11 1
14 7 4 7 4 3 2 -9 -3 -19 -1 -21 13 -13 20 10 41 -4 41 -30 0 -9 6 -5 13 10 9
17 20 24 35 23 12 -2 22 2 22 8 0 5 5 7 10 4 6 -3 10 -1 10 4 0 6 -5 11 -12
11 -16 0 -1 13 18 16 11 2 13 -3 8 -18 -5 -16 -3 -20 9 -15 17 6 32 -8 40 -38
4 -19 5 -19 6 1 0 12 -6 27 -14 34 -8 7 -15 17 -15 23 0 6 3 7 7 4 3 -4 13 -1
21 6 13 10 15 9 9 -5 -3 -10 -4 -24 -1 -32 5 -12 12 -11 40 6 19 11 34 16 34
11 0 -5 -11 -16 -25 -23 -14 -7 -25 -17 -25 -22 0 -13 12 -9 26 10 12 16 13
15 23 -8 6 -15 10 -19 10 -9 1 9 8 22 16 29 13 10 19 9 36 -6 17 -16 19 -16
13 -1 -3 9 -11 17 -18 17 -6 0 -4 5 4 10 18 12 30 13 29 2 -3 -20 2 -32 12
-26 7 4 9 0 5 -14 -4 -11 -2 -23 3 -27 7 -4 8 1 4 11 -5 12 -3 15 6 9 10 -6
11 -3 2 14 -7 11 -16 21 -22 21 -6 0 -7 5 -3 12 5 8 13 5 25 -10 17 -22 36
-31 24 -12 -6 9 8 14 28 11 5 -1 6 3 2 9 -3 5 -1 10 6 10 6 0 9 -8 6 -19 -3
-13 -1 -18 9 -14 7 2 10 12 7 21 -4 9 -3 14 2 10 4 -4 14 -3 22 4 11 9 18 8
31 -5 10 -11 12 -17 4 -17 -7 0 -12 5 -12 10 0 14 -17 12 -23 -3 -3 -9 8 -12
42 -11 60 2 63 2 57 13 -3 5 2 15 11 22 14 12 15 11 8 -10 -6 -19 -4 -23 8
-18 17 6 32 -7 41 -38 3 -12 4 -9 2 7 -2 16 3 33 12 40 13 11 14 9 7 -11 -5
-16 -4 -21 4 -17 6 4 11 14 11 22 0 8 5 14 11 14 5 0 7 -5 3 -12 -4 -6 -3 -8
4 -4 6 3 15 -2 21 -11 6 -10 11 -13 11 -8 0 6 -5 16 -12 23 -7 7 -8 12 -2 12
17 0 33 -22 27 -39 -4 -14 -3 -14 6 -1 10 14 16 7 12 -14 -1 -5 5 -3 14 4 13
11 18 10 30 -6 14 -17 14 -17 4 8 -10 22 -15 25 -26 17 -7 -6 -13 -7 -13 -2 0
8 39 46 41 40 0 -1 2 -11 4 -22 2 -11 8 -21 14 -23 5 -2 8 -9 5 -17 -3 -7 -1
-16 5 -20 7 -4 8 0 4 11 -5 13 -3 15 8 9 12 -8 12 -6 0 9 -12 15 -12 19 3 34
17 16 18 16 11 -8 -7 -23 -7 -23 9 -7 10 9 21 15 26 12 5 -3 11 1 14 7 4 7 4
3 2 -10 l-4 -23 34 20 c42 25 51 26 34 6 -10 -11 -10 -19 -2 -27 6 -6 8 -17 5
-24 -3 -8 -1 -14 5 -14 11 0 11 18 -2 38 -4 7 -5 16 -1 20 3 3 10 0 15 -8 6
-10 8 -6 6 15 -2 17 -8 31 -15 31 -6 1 -15 2 -19 3 -4 0 -8 10 -9 21 -1 14 4
19 17 17 10 -1 19 3 19 8 2 18 -36 13 -48 -6 -7 -13 -8 -19 0 -19 5 0 7 -5 3
-11 -4 -8 -9 -7 -15 2 -4 7 -6 16 -3 20 2 4 -5 7 -16 6 -24 -2 -26 -12 -4 -21
18 -7 11 -22 -19 -37 -20 -9 -19 -8 3 12 17 16 20 20 7 16 -12 -5 -16 -3 -11
5 5 7 3 8 -6 3 -9 -6 -11 -4 -5 6 7 11 6 12 -6 3 -8 -6 -23 -9 -34 -7 -11 2
-26 5 -32 5 -17 2 -16 6 1 24 13 12 15 11 21 -6 4 -11 11 -17 17 -14 6 4 6 10
0 16 -14 14 -4 38 16 38 12 0 13 3 5 11 -8 8 -17 6 -31 -7 -21 -19 -49 -43
-54 -46 -2 -1 -13 4 -25 11 -18 9 -23 9 -23 -1 0 -6 -6 -3 -14 8 -12 15 -17
17 -27 6 -11 -10 -10 -15 5 -30 17 -16 18 -16 12 8 l-7 25 15 -25 c20 -32 20
-44 0 -36 -8 3 -13 2 -10 -2 3 -5 -1 -9 -9 -9 -8 0 -12 5 -9 11 3 6 -2 2 -12
-9 -11 -14 -15 -15 -11 -4 3 9 0 16 -8 16 -7 0 -11 -6 -9 -12 6 -15 -22 -39
-30 -27 -3 6 1 13 10 16 8 3 12 11 8 17 -5 8 -13 4 -26 -12 l-19 -24 11 24
c10 18 9 22 -1 16 -8 -6 -10 -4 -4 5 5 9 4 11 -3 6 -8 -5 -10 -2 -6 8 3 9 11
13 17 9 6 -4 7 -1 2 7 -6 9 -4 11 5 5 9 -6 11 -4 5 6 -8 12 -6 12 8 0 10 -8
17 -9 17 -3 0 16 -19 25 -33 15 -7 -5 -21 -9 -32 -8 -11 0 -28 -3 -37 -7 -9
-5 -20 -4 -23 2 -3 5 -11 10 -18 10 -6 0 -2 -7 9 -15 19 -15 19 -15 -1 -9 -16
6 -18 5 -7 -7 6 -7 12 -17 12 -23 0 -5 -7 -1 -15 10 -15 19 -15 19 -8 0 5 -16
3 -18 -11 -13 -9 4 -15 3 -11 -2 3 -5 -3 -8 -12 -6 -10 1 -29 -4 -43 -12 l-25
-14 21 19 22 19 -21 12 c-16 10 -17 15 -6 21 7 5 17 6 21 4 4 -3 8 0 8 7 0 8
5 7 17 -2 14 -12 16 -12 11 1 -5 17 -48 23 -48 7 0 -5 -6 -4 -15 3 -18 15 -40
3 -26 -14 7 -9 7 -16 0 -23 -12 -12 -42 -6 -34 7 3 4 -2 13 -10 20 -10 8 -15
9 -15 2 0 -11 -31 -9 -50 3 -6 3 -10 2 -10 -3 0 -6 7 -12 15 -16 8 -3 12 -12
9 -21 -3 -8 -1 -15 6 -15 6 0 9 -4 5 -10 -8 -12 -35 -1 -32 13 1 7 7 15 12 19
6 5 5 8 -2 9 -7 1 -18 2 -25 3 -6 0 -13 8 -15 16 -4 13 -3 13 6 0 7 -9 11 -10
11 -3 0 17 -20 27 -32 15 -6 -6 -17 -8 -24 -5 -8 3 -14 0 -14 -7 0 -6 5 -8 10
-5 6 3 10 1 10 -5 0 -6 4 -9 9 -5 5 3 13 0 16 -6 4 -5 13 -8 20 -5 7 2 12 -2
11 -9 -3 -19 -16 -32 -16 -16 0 7 -5 9 -11 5 -8 -4 -7 -9 2 -15 8 -5 10 -9 4
-9 -5 0 -25 9 -43 20 -19 12 -30 15 -26 8 4 -7 4 -10 -1 -6 -4 4 -15 2 -23 -5
-13 -10 -14 -9 -7 2 6 10 4 12 -5 6 -8 -5 -11 -4 -7 2 7 12 -32 11 -51 -1 -9
-5 -10 -11 -3 -20 19 -23 -1 -26 -21 -3 -11 12 -16 16 -13 8 6 -9 1 -9 -17 3
-14 9 -28 13 -31 9 -6 -6 -11 11 -8 29 0 4 -8 6 -19 5 -24 -2 -25 -6 -4 -21
13 -10 13 -12 -5 -12 -11 0 -18 4 -15 7 2 4 0 10 -6 14 -17 11 -11 24 10 20
11 -2 20 1 20 7 0 6 7 5 17 -3 14 -12 16 -12 11 1 -5 17 -48 23 -48 7 0 -5 -6
-4 -15 3 -18 15 -40 3 -26 -14 7 -9 7 -16 0 -23 -12 -12 -42 -6 -34 7 3 4 -2
13 -10 20 -10 8 -15 9 -15 2 0 -11 -31 -9 -50 3 -6 3 -10 1 -10 -6 0 -7 -6 -4
-14 7 -12 15 -17 17 -27 6 -11 -10 -10 -15 5 -30 17 -16 18 -16 12 8 l-7 25
15 -25 c20 -32 20 -44 0 -36 -8 3 -13 2 -10 -2 3 -5 -1 -9 -9 -9 -8 0 -12 5
-9 11 3 6 -2 2 -12 -9 -11 -14 -15 -15 -11 -4 3 9 0 16 -8 16 -7 0 -11 -6 -9
-12 6 -15 -22 -39 -30 -27 -3 6 1 13 10 16 8 3 12 11 8 17 -5 8 -13 4 -26 -12
l-19 -24 11 24 c10 18 9 22 -1 16 -8 -6 -10 -4 -4 5 5 9 4 11 -3 6 -8 -5 -10
-2 -6 8 3 9 11 13 17 9 6 -4 7 -1 2 7 -6 9 -4 11 5 5 9 -6 11 -4 5 6 -8 12 -6
12 8 0 10 -8 17 -9 17 -3 0 16 -19 25 -33 15 -7 -5 -21 -9 -32 -8 -11 0 -28
-3 -37 -7 -9 -5 -20 -4 -23 2 -3 5 -11 10 -18 10 -6 0 -2 -7 9 -15 19 -15 19
-15 -1 -9 -16 6 -18 5 -7 -7 6 -7 12 -17 12 -23 0 -5 -7 -1 -15 10 -15 19 -15
19 -8 0 5 -16 3 -18 -11 -13 -9 4 -15 3 -11 -2 3 -5 -3 -8 -12 -6 -10 1 -29
-4 -43 -12 l-25 -14 21 19 22 19 -21 12 c-16 10 -17 15 -6 21 7 5 17 6 21 4 4
-3 8 0 8 7 0 8 5 7 17 -2 14 -12 16 -12 11 1 -5 17 -48 23 -48 7 0 -5 -6 -4
-15 3 -18 15 -40 3 -26 -14 7 -9 7 -16 0 -23 -12 -12 -42 -6 -34 7 3 4 -2 13
-10 20 -10 8 -15 9 -15 2 0 -11 -31 -9 -50 3 -6 3 -10 2 -10 -3 0 -6 7 -12 15
-16 8 -3 12 -12 9 -21 -3 -8 -1 -15 6 -15 6 0 9 -4 5 -10 -8 -12 -35 -1 -32
13 1 7 7 15 12 19 6 5 5 8 -2 9 -7 1 -18 2 -25 3 -6 0 -13 8 -15 16 -4 13 -3
13 6 0 7 -9 11 -10 11 -3 0 17 -20 27 -32 15 -6 -6 -17 -8 -24 -5 -8 3 -14 0
-14 -7 0 -6 5 -8 10 -5 6 3 10 1 10 -5 0 -6 4 -9 9 -5 5 3 13 0 16 -6 4 -5 13
-8 20 -5 7 2 12 -2 11 -9 -3 -19 -16 -32 -16 -16 0 7 -5 9 -11 5 -8 -4 -7 -9
2 -15 8 -5 10 -9 4 -9 -5 0 -25 9 -43 20 -19 12 -30 15 -26 8 4 -7 4 -10 -1
-6 -4 4 -15 2 -23 -5 -11 -8 -14 -8 -9 0 5 7 -1 10 -17 9 -19 -2 -23 1 -21 15
2 11 -1 19 -6 19 -6 0 -7 6 -4 13 4 6 -2 2 -14 -11 -11 -13 -22 -18 -26 -12
-3 5 -12 10 -18 10 -7 0 -6 -4 3 -10 11 -7 11 -10 2 -10 -10 0 -10 -5 2 -22
19 -26 20 -38 5 -38 -5 0 -7 5 -4 10 3 6 1 10 -4 10 -6 0 -10 3 -10 8 1 4 0
10 -1 15 -3 9 -7 25 -9 34 0 4 -8 -2 -17 -13 -8 -10 -12 -13 -8 -5 5 10 3 12
-7 5 -22 -14 -53 -11 -67 6 -9 10 -11 11 -6 1 5 -10 3 -12 -7 -7 -8 4 -3 -2
11 -14 l25 -21 -25 12 c-28 14 -102 20 -94 7 3 -4 0 -8 -6 -8 -7 0 -9 9 -6 23
3 12 3 16 0 9 -3 -6 -10 -10 -15 -7 -5 4 -6 -2 -3 -12 5 -15 4 -16 -5 -3 -6 8
-11 11 -11 7 0 -4 -9 -3 -21 3 -18 10 -19 10 -10 -8 10 -19 6 -32 -10 -32 -4
0 -6 9 -4 19 2 13 -6 26 -23 37 -20 13 -24 14 -17 3 6 -8 2 -6 -7 4 -10 11
-18 15 -18 10 0 -5 6 -15 13 -22 10 -11 9 -12 -2 -6 -10 6 -12 4 -6 -6 5 -8 4
-11 -1 -6 -5 5 -10 13 -10 18 -1 5 -2 14 -3 20 0 5 -6 7 -11 4 -7 -4 -6 -13 1
-26 10 -19 9 -19 -10 -9 -12 6 -21 8 -21 4 0 -3 -7 -1 -15 6 -11 9 -15 9 -15
1 0 -7 -4 -10 -9 -6 -5 3 -17 -3 -27 -12 -17 -17 -18 -17 -11 0 5 12 3 16 -5
11 -7 -5 -8 -3 -3 5 6 10 3 11 -13 2 -25 -14 -43 -14 -22 -1 11 7 12 10 2 10
-9 0 -11 8 -8 23 3 12 3 16 0 9 -3 -6 -11 -9 -17 -5 -6 4 -8 0 -4 -10 3 -9 -1
-21 -11 -29 -16 -12 -16 -11 -2 7 11 16 11 17 0 8 -8 -7 -18 -13 -24 -13 -5 0
-2 6 8 13 16 12 16 14 2 14 -9 0 -16 -4 -16 -9 0 -5 -4 -7 -9 -3 -5 3 -12 1
-16 -5 -4 -6 -11 -8 -16 -4 -5 3 -16 0 -24 -6 -15 -13 -16 -12 -19 30 -1 17
-44 22 -63 7 -9 -6 -13 -6 -13 2 0 6 5 11 11 11 5 0 8 4 4 9 -3 5 0 13 6 17 7
4 9 3 5 -4 -3 -6 -2 -13 4 -17 9 -5 14 7 12 27 -1 3 5 9 13 12 9 3 12 0 9 -9
-4 -9 1 -13 12 -11 10 2 20 8 22 14 2 7 8 10 13 6 5 -3 9 0 9 5 0 14 -17 14
-25 0 -5 -7 -16 -2 -31 12 -22 21 -30 17 -25 -13 1 -8 -15 -12 -31 -9 -5 0 -7
-2 -7 -7 3 -20 -3 -28 -22 -29 -15 -1 -19 3 -15 13 3 8 1 12 -4 9 -5 -3 -18
-1 -27 4 -15 8 -15 11 -3 12 8 1 21 1 28 0 6 -1 12 2 13 6 0 4 2 18 3 31 2 13
-1 25 -6 28 -4 3 -9 -3 -10 -13z m-7 -90 c13 -16 12 -17 -3 -4 -10 7 -18 15
-18 17 0 8 8 3 21 -13z m114 -33 c-2 -33 -15 -41 -37 -21 -24 23 -18 37 15 37
15 0 23 -6 22 -16z m-73 -7 c-10 -4 -10 -8 -1 -19 8 -9 8 -14 1 -14 -18 0 -24
20 -11 36 6 8 15 12 18 8 3 -4 0 -9 -7 -11z m1334 -26 c-1 -7 -9 -23 -18 -36
-16 -23 -18 -23 -42 -7 -25 16 -33 27 -18 25 19 -3 33 2 27 10 -3 5 2 17 11
26 17 17 44 5 40 -18z m960 0 c-1 -7 -9 -23 -18 -36 -16 -23 -18 -23 -42 -7
-25 16 -33 27 -18 25 19 -3 33 2 27 10 -3 5 2 17 11 26 17 17 44 5 40 -18z
m-2069 8 c0 -8 -4 -12 -9 -9 -5 3 -6 10 -3 15 9 13 12 11 12 -6z m844 1 c-14
-8 -19 -16 -13 -20 6 -3 12 -1 14 6 3 8 9 8 24 0 14 -8 23 -7 35 4 13 12 18
12 27 2 7 -10 5 -19 -8 -36 -19 -23 -19 -23 -32 -3 -7 12 -16 21 -21 21 -4 0
-5 -6 -1 -12 5 -9 2 -9 -9 1 -9 7 -17 9 -17 3 0 -5 -7 -13 -16 -16 -14 -5 -15
-4 -5 8 8 9 8 16 2 20 -16 11 -2 32 22 33 22 2 22 2 -2 -11z m447 2 c9 -9 12
-9 12 2 0 9 5 8 15 -6 13 -16 14 -16 9 -1 -4 10 -1 17 6 17 6 0 9 -4 5 -9 -3
-6 3 -15 14 -20 14 -8 22 -7 31 4 13 16 25 12 25 -8 0 -6 16 -12 35 -12 19 0
45 -6 56 -12 12 -7 24 -9 28 -6 3 3 6 4 6 1 0 -3 -10 -13 -22 -24 -19 -17 -21
-17 -15 -2 3 10 1 20 -5 24 -6 4 -8 3 -4 -4 4 -7 -1 -10 -14 -9 -10 1 -22 7
-25 15 -3 9 -10 10 -23 3 -13 -7 -22 -7 -29 0 -6 6 -14 5 -23 -6 -7 -8 -17
-15 -23 -15 -6 0 -7 3 -4 7 4 3 2 12 -5 20 -9 11 -15 10 -34 -8 -20 -18 -26
-20 -39 -9 -11 9 -12 16 -5 25 6 7 8 20 4 29 -7 19 7 21 24 4z m513 -2 c-14
-8 -19 -16 -13 -20 6 -3 12 -1 14 6 3 8 9 8 24 0 14 -8 23 -7 35 4 13 12 18
12 27 2 7 -10 5 -19 -8 -36 -19 -23 -19 -23 -32 -3 -7 12 -16 21 -21 21 -4 0
-5 -6 -1 -12 5 -9 2 -9 -9 1 -9 7 -17 9 -17 3 0 -5 -7 -13 -16 -16 -14 -5 -15
-4 -5 8 8 9 8 16 2 20 -16 11 -2 32 22 33 22 2 22 2 -2 -11z m447 2 c9 -9 12
-9 12 3 0 12 2 12 9 0 9 -14 25 -20 69 -24 21 -3 33 -22 13 -22 -6 0 -16 -6
-22 -12 -7 -7 -17 -13 -23 -13 -5 0 -6 3 -3 7 4 3 2 12 -5 20 -9 11 -15 10
-34 -8 -20 -18 -26 -20 -39 -9 -11 9 -12 16 -5 25 6 7 8 20 4 29 -7 19 7 21
24 4z m-2288 -18 c0 -5 -2 -10 -4 -10 -3 0 -8 5 -11 10 -3 6 -1 10 4 10 6 0
11 -4 11 -10z m80 1 c0 -6 -4 -12 -8 -15 -5 -3 -9 1 -9 9 0 8 4 15 9 15 4 0 8
-4 8 -9z m96 -7 c-3 -8 -1 -16 5 -19 5 -4 8 -1 7 6 -2 7 6 13 17 14 11 0 27 4
35 10 12 7 13 6 3 -7 -7 -8 -10 -18 -6 -21 6 -7 -12 -11 -31 -8 -4 1 -15 -4
-24 -11 -12 -10 -14 -10 -8 0 4 6 2 12 -3 12 -22 0 -26 2 -34 16 -5 8 -13 11
-19 8 -6 -4 -8 -3 -5 3 9 15 69 12 63 -3z m464 7 c0 -5 -8 -15 -17 -22 -11
-10 -14 -10 -9 -1 4 6 2 12 -3 12 -20 0 -11 16 9 17 11 1 20 -2 20 -6z m-170
-24 c18 -15 37 -7 26 11 -3 5 12 7 32 6 55 -3 55 -3 42 -19 -8 -10 -21 -13
-33 -9 -15 5 -17 3 -11 -7 6 -12 5 -12 -8 -1 -12 9 -18 10 -23 2 -5 -8 -12 -7
-24 4 -14 13 -20 13 -37 3 -19 -13 -72 -22 -60 -10 3 3 -2 12 -12 20 -15 11
-15 12 -1 7 10 -3 19 -1 23 4 8 14 65 7 86 -11z m213 1 c3 -10 8 -9 22 2 17
14 17 14 4 -7 -17 -28 -21 -28 -37 -3 -7 11 -8 20 -3 20 5 0 11 -6 14 -12z
m1803 0 c3 -4 -3 -11 -14 -17 -15 -8 -21 -7 -25 3 -3 8 -3 16 -1 19 7 6 31 3
40 -5z m-2166 -2 c0 -2 -8 -10 -17 -17 -16 -13 -17 -12 -4 4 13 16 21 21 21
13z m445 -18 c-19 -11 -30 -5 -21 11 4 6 14 7 22 4 15 -5 14 -7 -1 -15z m75 2
c0 -4 -6 -13 -14 -19 -11 -10 -14 -7 -12 12 0 15 6 23 14 20 6 -3 12 -9 12
-13z m885 -2 c-19 -11 -30 -5 -21 11 4 6 14 7 22 4 15 -5 14 -7 -1 -15z m75 2
c0 -4 -6 -13 -14 -19 -11 -10 -14 -7 -12 12 0 15 6 23 14 20 6 -3 12 -9 12
-13z"/>
<path d="M3444 368 c-5 -7 -9 -23 -10 -36 -1 -21 0 -21 17 -6 16 15 20 37 7
49 -3 4 -10 0 -14 -7z m12 -13 c-1 -8 -5 -17 -8 -21 -5 -4 -4 16 1 34 3 9 9
-1 7 -13z"/>
<path d="M4404 368 c-5 -7 -9 -23 -10 -36 -1 -21 0 -21 17 -6 16 15 20 37 7
49 -3 4 -10 0 -14 -7z m12 -13 c-1 -8 -5 -17 -8 -21 -5 -4 -4 16 1 34 3 9 9
-1 7 -13z"/>
<path d="M3271 346 c-7 -8 -8 -17 -3 -20 6 -3 15 1 21 8 7 8 8 17 3 20 -6 3
-15 -1 -21 -8z"/>
<path d="M3644 361 c4 -6 2 -20 -5 -29 -11 -14 -11 -15 1 -4 21 18 34 15 19
-5 -11 -15 -9 -14 9 1 20 17 22 31 4 31 -4 0 -13 4 -21 9 -10 6 -12 5 -7 -3z"/>
<path d="M3749 343 c-7 -10 -9 -15 -5 -11 5 4 16 2 25 -5 14 -10 14 -10 4 4
-7 9 -10 19 -6 22 3 4 4 7 1 7 -3 0 -12 -8 -19 -17z"/>
<path d="M3700 346 c0 -2 7 -9 15 -16 9 -7 15 -8 15 -2 0 5 -7 12 -15 16 -8 3
-15 4 -15 2z"/>
<path d="M4231 346 c-7 -8 -8 -17 -3 -20 6 -3 15 1 21 8 7 8 8 17 3 20 -6 3
-15 -1 -21 -8z"/>
<path d="M4604 361 c4 -6 2 -20 -5 -29 -11 -14 -11 -15 1 -4 21 18 34 15 19
-5 -11 -15 -9 -14 9 1 20 17 22 31 4 31 -4 0 -13 4 -21 9 -10 6 -12 5 -7 -3z"/>
<path d="M4660 346 c0 -2 7 -9 15 -16 9 -7 15 -8 15 -2 0 5 -7 12 -15 16 -8 3
-15 4 -15 2z"/>
<path d="M2713 327 c-3 -7 -3 -9 2 -5 4 4 14 3 21 -3 8 -7 14 -7 19 1 3 5 5
10 3 11 -27 6 -39 5 -45 -4z"/>
<path d="M2867 329 c7 -7 15 -10 18 -7 3 3 -2 9 -12 12 -14 6 -15 5 -6 -5z"/>
<path d="M1667 496 c-4 -10 0 -12 15 -8 16 4 19 2 13 -8 -5 -9 -4 -11 3 -6 16
10 15 14 -7 25 -14 8 -20 7 -24 -3z"/>
<path d="M1525 490 c-3 -6 1 -7 9 -4 18 7 21 14 7 14 -6 0 -13 -4 -16 -10z"/>
<path d="M5190 479 c5 -9 6 -20 2 -24 -4 -5 -2 -5 5 -1 7 4 9 14 6 23 -4 10
-2 14 5 9 6 -3 13 -3 16 2 2 4 -6 8 -19 8 -19 0 -22 -3 -15 -17z"/>
<path d="M1616 471 c9 -9 34 -9 34 -1 0 5 -9 8 -20 7 -10 -1 -17 -3 -14 -6z"/>
<path d="M1715 470 c-3 -6 1 -7 9 -4 18 7 21 14 7 14 -6 0 -13 -4 -16 -10z"/>
<path d="M2306 459 c-10 -15 -20 -19 -35 -14 -15 4 -23 1 -27 -10 -6 -13 -8
-14 -15 -3 -6 9 -9 9 -9 1 0 -7 8 -17 18 -22 9 -6 11 -11 5 -11 -7 0 -13 -5
-13 -11 0 -8 4 -8 14 0 10 8 16 9 21 2 4 -7 14 -6 29 4 12 8 26 12 29 8 4 -3
7 -1 7 6 0 7 4 10 8 7 12 -7 38 12 28 21 -5 4 -11 2 -13 -5 -4 -10 -9 -8 -20
5 -8 10 -12 13 -9 6 8 -14 -10 -27 -19 -13 -3 5 3 15 15 22 21 13 27 28 11 28
-6 0 -16 -9 -25 -21z m-35 -33 c17 10 31 -7 18 -22 -14 -17 -39 -1 -38 25 0
10 2 12 6 3 2 -6 9 -10 14 -6z"/>
<path d="M2270 409 c0 -5 5 -7 10 -4 6 3 10 8 10 11 0 2 -4 4 -10 4 -5 0 -10
-5 -10 -11z"/>
<path d="M2734 455 c-4 -8 -10 -12 -15 -9 -5 3 -9 0 -9 -5 0 -6 6 -11 13 -11
6 -1 2 -6 -10 -13 -18 -10 -20 -15 -10 -32 13 -23 59 -27 78 -8 9 9 16 9 25 2
7 -6 14 -6 18 -1 3 6 -1 16 -10 23 -14 11 -18 10 -31 -6 -15 -19 -15 -19 -8 2
5 18 3 22 -8 17 -21 -8 -30 12 -17 36 7 14 8 20 0 20 -6 0 -13 -7 -16 -15z
m16 -59 c-1 -5 4 -12 12 -17 9 -6 6 -8 -9 -6 -17 1 -19 4 -11 14 13 16 -4 17
-20 1 -8 -8 -12 -9 -12 -1 0 12 19 23 33 19 5 -1 8 -5 7 -10z"/>
<path d="M1779 458 c0 -2 -2 -13 -3 -25 -2 -16 1 -20 9 -13 7 5 15 7 18 3 4
-3 7 -1 7 5 0 7 -7 12 -16 12 -8 0 -12 5 -9 10 3 6 4 10 1 10 -3 0 -6 -1 -7
-2z"/>
<path d="M2387 448 c-8 -22 -1 -62 11 -66 7 -2 12 2 12 9 0 8 5 5 13 -5 11
-15 18 -16 34 -8 11 6 23 8 27 5 9 -9 36 -13 34 -5 -1 4 3 17 10 28 9 17 9 24
-2 33 -13 11 -26 5 -26 -10 0 -5 8 -6 18 -3 12 4 10 1 -4 -8 -12 -7 -19 -20
-17 -28 4 -12 3 -13 -5 -1 -5 7 -16 10 -23 7 -8 -4 -6 -1 4 7 9 8 17 22 17 32
0 10 -3 15 -7 11 -5 -4 -8 -13 -8 -19 0 -7 -7 -12 -15 -12 -8 0 -21 -4 -27 -8
-7 -5 -14 -4 -14 2 -1 6 -3 16 -4 21 -1 6 -3 15 -4 20 -2 14 -18 12 -24 -2z
m60 -53 c0 -8 -4 -15 -9 -15 -10 0 -11 14 -1 23 9 10 10 9 10 -8z"/>
<path d="M4950 450 c0 -5 5 -10 11 -10 5 0 7 5 4 10 -3 6 -8 10 -11 10 -2 0
-4 -4 -4 -10z"/>
<path d="M2652 427 c-26 -15 -36 -17 -42 -8 -10 18 -15 18 -34 2 -14 -12 -16
-12 -10 3 3 9 2 16 -4 16 -11 0 -25 -30 -17 -38 3 -3 5 -2 5 2 0 4 10 1 23 -6
12 -7 25 -11 30 -10 4 1 7 -3 7 -10 0 -6 3 -8 6 -5 4 3 14 2 23 -2 18 -10 60
13 47 26 -4 4 -11 1 -16 -7 -8 -12 -10 -12 -10 -1 0 10 -3 11 -14 2 -10 -8
-16 -9 -21 -1 -6 9 1 14 18 11 4 0 7 5 7 12 0 9 2 9 8 0 5 -8 13 -8 30 1 19
10 21 15 10 23 -9 7 -22 4 -46 -10z m-42 -23 c0 -8 -19 -13 -24 -6 -3 5 1 9 9
9 8 0 15 -2 15 -3z"/>
<path d="M2915 440 c-3 -5 -20 -8 -38 -5 -31 6 -31 6 -12 -15 21 -24 29 -26
21 -5 -8 21 1 19 14 -4 8 -16 7 -19 -8 -16 -9 2 -17 4 -17 6 0 1 -10 3 -21 4
-16 2 -21 -3 -21 -20 0 -23 11 -26 34 -12 7 5 23 10 34 12 26 5 38 15 18 15
-8 1 1 9 20 19 21 11 30 21 22 25 -6 4 -11 2 -11 -5 0 -9 -3 -9 -14 0 -10 8
-16 9 -21 1z m-50 -49 c3 -5 2 -12 -3 -15 -5 -3 -9 1 -9 9 0 17 3 19 12 6z"/>
<path d="M3395 440 c-3 -5 -20 -8 -38 -4 l-31 5 23 -25 c27 -29 22 -44 -14
-41 -30 4 -32 -6 -5 -22 12 -8 21 -9 25 -3 4 6 11 8 16 5 5 -3 6 1 3 9 -3 9
-1 16 6 16 6 0 9 4 5 10 -3 5 11 18 31 28 23 12 33 22 25 26 -6 4 -11 2 -11
-5 0 -9 -3 -9 -14 0 -10 8 -16 9 -21 1z m-17 -35 c-3 -3 -9 2 -12 12 -6 14 -5
15 5 6 7 -7 10 -15 7 -18z"/>
<path d="M3875 440 c-3 -5 -20 -8 -38 -4 l-31 5 23 -25 c20 -21 22 -28 11 -41
-12 -15 -4 -20 23 -16 4 0 7 -3 7 -7 0 -13 33 -11 50 2 8 7 22 12 30 11 8 0
21 6 28 15 12 13 13 13 8 -2 -6 -20 9 -34 19 -18 5 8 11 7 21 -1 8 -6 14 -8
14 -3 0 5 4 3 9 -5 5 -7 14 -10 20 -7 17 11 4 25 -18 21 -12 -2 -22 5 -30 21
-11 25 -26 31 -36 14 -4 -6 -10 -8 -15 -5 -5 3 -11 1 -15 -5 -3 -5 -11 -10
-16 -10 -6 0 -7 5 -3 11 5 8 1 8 -14 0 -15 -8 -23 -8 -27 0 -4 6 -13 8 -21 5
-8 -3 -18 4 -24 17 -10 19 -9 20 2 6 13 -16 16 -15 47 1 21 10 30 20 22 24 -6
4 -11 2 -11 -5 0 -9 -3 -9 -14 0 -10 8 -16 9 -21 1z m21 -73 c2 -13 -2 -15
-16 -7 -9 5 -20 6 -24 3 -3 -3 -6 -1 -6 5 0 25 42 25 46 -1z m34 9 c0 -3 -4
-8 -10 -11 -5 -3 -10 -1 -10 4 0 6 5 11 10 11 6 0 10 -2 10 -4z"/>
<path d="M4355 440 c-3 -5 -20 -8 -38 -4 l-31 5 23 -25 c27 -29 22 -44 -14
-41 -30 4 -32 -6 -5 -22 12 -8 21 -9 25 -3 4 6 11 8 16 5 5 -3 6 1 3 9 -3 9
-1 16 6 16 6 0 9 4 5 10 -3 5 11 18 31 28 23 12 33 22 25 26 -6 4 -11 2 -11
-5 0 -9 -3 -9 -14 0 -10 8 -16 9 -21 1z m-17 -35 c-3 -3 -9 2 -12 12 -6 14 -5
15 5 6 7 -7 10 -15 7 -18z"/>
<path d="M3185 430 c-3 -6 1 -7 9 -4 18 7 21 14 7 14 -6 0 -13 -4 -16 -10z"/>
<path d="M3665 430 c-3 -6 1 -7 9 -4 18 7 21 14 7 14 -6 0 -13 -4 -16 -10z"/>
<path d="M4145 430 c-3 -6 1 -7 9 -4 18 7 21 14 7 14 -6 0 -13 -4 -16 -10z"/>
<path d="M4625 430 c-3 -6 1 -7 9 -4 18 7 21 14 7 14 -6 0 -13 -4 -16 -10z"/>
<path d="M1730 409 c0 -5 5 -7 10 -4 6 3 10 8 10 11 0 2 -4 4 -10 4 -5 0 -10
-5 -10 -11z"/>
<path d="M1820 416 c0 -2 8 -10 18 -17 15 -13 16 -12 3 4 -13 16 -21 21 -21
13z"/>
<path d="M1857 399 c4 -13 8 -18 11 -10 2 7 -1 18 -6 23 -8 8 -9 4 -5 -13z"/>
<path d="M5150 410 c0 -5 7 -7 15 -4 8 4 15 8 15 10 0 2 -7 4 -15 4 -8 0 -15
-4 -15 -10z"/>
<path d="M5210 410 c0 -5 5 -10 11 -10 5 0 7 5 4 10 -3 6 -8 10 -11 10 -2 0
-4 -4 -4 -10z"/>
<path d="M3026 403 c-4 -5 -12 -8 -18 -8 -12 0 -21 -34 -10 -36 4 0 15 -2 24
-4 10 -2 21 1 24 6 3 6 11 5 20 -2 8 -6 14 -8 14 -3 0 5 4 3 9 -5 5 -7 14 -10
20 -7 17 11 4 25 -18 21 -12 -2 -22 5 -30 21 -11 25 -22 30 -35 17z m16 -21
c-7 -2 -10 -7 -8 -11 3 -4 -1 -8 -9 -8 -8 0 -16 6 -19 13 -3 8 0 11 10 7 7 -3
14 0 14 7 0 6 5 8 12 4 9 -6 9 -9 0 -12z"/>
<path d="M4705 401 c-3 -5 -1 -12 5 -16 6 -4 8 -12 4 -18 -3 -7 0 -5 8 4 7 9
21 15 31 13 9 -1 17 2 17 8 0 6 7 4 17 -3 14 -12 16 -12 11 1 -5 17 -48 23
-48 7 0 -7 -4 -7 -12 1 -14 14 -25 15 -33 3z"/>
<path d="M3546 385 c-3 -8 -11 -14 -17 -13 -6 2 -13 -2 -15 -7 -3 -6 14 -11
40 -11 43 0 43 1 27 23 -19 27 -27 28 -35 8z m28 -13 c3 -5 -1 -9 -9 -9 -8 0
-15 4 -15 9 0 4 4 8 9 8 6 0 12 -4 15 -8z"/>
<path d="M4506 385 c-3 -8 -11 -14 -17 -13 -6 2 -13 -2 -15 -7 -3 -6 14 -11
40 -11 43 0 43 1 27 23 -19 27 -27 28 -35 8z m28 -13 c3 -5 -1 -9 -9 -9 -8 0
-15 4 -15 9 0 4 4 8 9 8 6 0 12 -4 15 -8z"/>
<path d="M5171 383 c0 -11 3 -13 6 -5 2 6 10 9 15 6 7 -4 8 -2 4 4 -11 18 -26
14 -25 -5z"/>
<path d="M2057 383 c-4 -3 -7 -11 -7 -17 0 -6 5 -5 12 2 6 6 9 14 7 17 -3 3
-9 2 -12 -2z"/>
<path d="M4871 387 c2 -1 13 -9 24 -17 19 -14 19 -14 6 3 -7 9 -18 17 -24 17
-6 0 -8 -1 -6 -3z"/>
<path d="M1979 378 c-8 -27 -5 -36 9 -30 10 4 12 7 4 10 -7 2 -10 8 -6 13 3 5
3 9 0 9 -3 0 -6 -1 -7 -2z"/>
<path d="M5127 353 c3 -7 6 -13 8 -13 2 0 5 6 8 13 3 8 -1 14 -8 14 -7 0 -11
-6 -8 -14z"/>
<path d="M2030 350 c0 -5 5 -10 11 -10 5 0 7 5 4 10 -3 6 -8 10 -11 10 -2 0
-4 -4 -4 -10z"/>
<path d="M5073 323 c1 -14 9 -28 17 -30 13 -4 13 -3 0 6 -8 5 -11 13 -7 17 3
4 13 1 22 -6 9 -7 18 -10 22 -6 3 3 2 6 -3 6 -6 0 -20 9 -32 20 l-21 20 2 -27z"/>
<path d="M5110 341 c0 -6 4 -13 10 -16 6 -3 7 1 4 9 -7 18 -14 21 -14 7z"/>
<path d="M5154 341 c4 -5 0 -11 -6 -14 -7 -3 -3 -4 9 -4 17 1 19 4 11 14 -12
15 -22 18 -14 4z"/>
<path d="M2115 330 c6 -9 4 -12 -7 -8 -10 4 -14 0 -13 -13 1 -10 4 -21 8 -24
4 -3 5 -2 2 2 -3 3 2 14 11 24 12 13 12 19 3 25 -8 5 -10 3 -4 -6z"/>
<path d="M2580 310 c0 -5 5 -10 10 -10 6 0 10 5 10 10 0 6 -4 10 -10 10 -5 0
-10 -4 -10 -10z"/>
<path d="M5215 310 c3 -5 8 -10 11 -10 2 0 4 5 4 10 0 6 -5 10 -11 10 -5 0 -7
-4 -4 -10z"/>
<path d="M2153 295 c0 -8 4 -12 9 -9 5 3 6 10 3 15 -9 13 -12 11 -12 -6z"/>
<path d="M2240 306 c0 -2 7 -7 16 -10 8 -3 12 -2 9 4 -6 10 -25 14 -25 6z"/>
<path d="M2036 288 c3 -4 11 -5 19 -1 21 7 19 12 -4 10 -11 0 -18 -5 -15 -9z"/>
<path d="M2191 283 c7 -12 15 -20 18 -17 3 2 -3 12 -13 22 -17 16 -18 16 -5
-5z"/>
<path d="M2296 291 c-3 -5 2 -15 12 -22 15 -12 16 -12 5 2 -7 9 -10 19 -6 22
3 4 4 7 0 7 -3 0 -8 -4 -11 -9z"/>
<path d="M2416 292 c-2 -4 0 -14 6 -22 8 -12 9 -12 4 2 -3 12 2 18 17 21 l22
4 -22 2 c-12 0 -24 -3 -27 -7z"/>
<path d="M5170 290 c0 -5 5 -10 11 -10 5 0 7 5 4 10 -3 6 -8 10 -11 10 -2 0
-4 -4 -4 -10z"/>
<path d="M2233 275 c0 -8 4 -12 9 -9 5 3 6 10 3 15 -9 13 -12 11 -12 -6z"/>
<path d="M2558 279 c-10 -5 -18 -15 -18 -22 0 -7 4 -6 10 3 9 13 11 13 20 0 7
-12 9 -10 7 8 0 12 -1 22 -2 22 0 0 -8 -5 -17 -11z"/>
<path d="M2637 283 c-4 -3 -7 -11 -7 -17 0 -6 5 -5 12 2 6 6 9 14 7 17 -3 3
-9 2 -12 -2z"/>
<path d="M3297 276 c-5 -12 -3 -15 5 -10 8 5 9 1 4 -12 -5 -14 -4 -16 4 -7 8
7 9 17 3 28 -9 16 -10 16 -16 1z"/>
<path d="M3463 283 c-15 -5 -17 -23 -4 -23 5 0 11 7 15 15 3 8 4 15 3 14 -1 0
-8 -3 -14 -6z"/>
<path d="M3497 270 c3 -11 7 -20 9 -20 2 0 4 9 4 20 0 11 -4 20 -9 20 -5 0 -7
-9 -4 -20z"/>
<path d="M3577 283 c-10 -10 -8 -23 4 -23 5 0 8 4 5 9 -4 5 0 12 6 14 7 3 8 6
2 6 -6 1 -14 -2 -17 -6z"/>
<path d="M3780 275 c6 -8 8 -20 4 -27 -5 -10 -4 -10 5 -2 13 12 5 44 -11 44
-6 0 -5 -6 2 -15z"/>
<path d="M3937 283 c-10 -10 -8 -23 4 -23 5 0 8 4 5 9 -4 5 0 12 6 14 7 3 8 6
2 6 -6 1 -14 -2 -17 -6z"/>
<path d="M3970 286 c0 -2 7 -7 16 -10 8 -3 12 -2 9 4 -6 10 -25 14 -25 6z"/>
<path d="M4257 276 c-5 -12 -3 -15 5 -10 8 5 9 1 4 -12 -5 -14 -4 -16 4 -7 8
7 9 17 3 28 -9 16 -10 16 -16 1z"/>
<path d="M4423 283 c-15 -5 -17 -23 -4 -23 5 0 11 7 15 15 3 8 4 15 3 14 -1 0
-8 -3 -14 -6z"/>
<path d="M4457 270 c3 -11 7 -20 9 -20 2 0 4 9 4 20 0 11 -4 20 -9 20 -5 0 -7
-9 -4 -20z"/>
<path d="M4537 283 c-10 -10 -8 -23 4 -23 5 0 8 4 5 9 -4 5 0 12 6 14 7 3 8 6
2 6 -6 1 -14 -2 -17 -6z"/>
<path d="M4740 275 c6 -8 8 -20 4 -27 -5 -10 -4 -10 5 -2 13 12 5 44 -11 44
-6 0 -5 -6 2 -15z"/>
<path d="M4792 281 c-11 -6 -9 -9 6 -13 15 -4 19 -2 15 8 -6 16 -4 16 -21 5z"/>
<path d="M4870 282 c0 -4 9 -8 19 -8 11 0 17 4 15 8 -3 4 -12 8 -20 8 -8 0
-14 -4 -14 -8z"/>
<path d="M5135 279 c-4 -6 -5 -12 -2 -15 2 -3 7 2 10 11 7 17 1 20 -8 4z"/>
<path d="M2354 265 c3 -23 12 -26 13 -5 1 11 -2 20 -7 20 -4 0 -7 -7 -6 -15z"/>
<path d="M2514 272 c3 -5 0 -13 -6 -15 -9 -4 -10 -6 -1 -6 17 -1 25 16 12 25
-7 4 -9 3 -5 -4z"/>
<path d="M2826 272 c-2 -4 4 -8 14 -8 10 0 16 4 14 8 -3 4 -9 8 -14 8 -5 0
-11 -4 -14 -8z"/>
<path d="M3170 265 c0 -8 2 -15 4 -15 2 0 6 7 10 15 3 8 1 15 -4 15 -6 0 -10
-7 -10 -15z"/>
<path d="M3376 265 c4 -8 8 -15 10 -15 2 0 4 7 4 15 0 8 -4 15 -10 15 -5 0 -7
-7 -4 -15z"/>
<path d="M3411 263 c0 -11 3 -13 6 -5 2 6 10 9 15 6 7 -4 8 -2 4 4 -11 18 -26
14 -25 -5z"/>
<path d="M3890 265 c0 -8 2 -15 4 -15 2 0 6 7 10 15 3 8 1 15 -4 15 -6 0 -10
-7 -10 -15z"/>
<path d="M4130 265 c0 -8 2 -15 4 -15 2 0 6 7 10 15 3 8 1 15 -4 15 -6 0 -10
-7 -10 -15z"/>
<path d="M4336 265 c4 -8 8 -15 10 -15 2 0 4 7 4 15 0 8 -4 15 -10 15 -5 0 -7
-7 -4 -15z"/>
<path d="M4371 263 c0 -11 3 -13 6 -5 2 6 10 9 15 6 7 -4 8 -2 4 4 -11 18 -26
14 -25 -5z"/>
<path d="M5079 278 c-6 -20 -5 -38 1 -48 5 -7 7 0 6 19 -1 26 -4 39 -7 29z"/>
<path d="M2708 263 c6 -2 10 -8 8 -12 -3 -4 1 -8 8 -8 8 0 12 6 9 14 -3 7 -13
13 -22 12 -10 0 -11 -2 -3 -6z"/>
<path d="M2867 257 c-3 -8 1 -14 9 -14 7 0 10 5 7 10 -4 6 1 8 11 4 10 -4 15
-3 11 3 -9 14 -32 12 -38 -3z"/>
<path d="M2998 263 c7 -3 16 -2 19 1 4 3 -2 6 -13 5 -11 0 -14 -3 -6 -6z"/>
<path d="M3600 266 c0 -2 7 -7 16 -10 8 -3 12 -2 9 4 -6 10 -25 14 -25 6z"/>
<path d="M3960 266 c0 -2 7 -7 16 -10 8 -3 12 -2 9 4 -6 10 -25 14 -25 6z"/>
<path d="M4560 266 c0 -2 7 -7 16 -10 8 -3 12 -2 9 4 -6 10 -25 14 -25 6z"/>
<path d="M2600 245 c-7 -9 -11 -17 -9 -20 3 -2 10 5 17 15 14 24 10 26 -8 5z"/>
<path d="M2957 247 c4 -6 0 -8 -9 -5 -8 4 -15 0 -15 -7 0 -11 5 -12 21 -2 12
6 26 10 31 8 6 -1 6 1 2 5 -12 12 -38 14 -30 1z"/>
<path d="M3553 239 c-2 -23 3 -25 10 -4 4 8 3 16 -1 19 -4 3 -9 -4 -9 -15z"/>
<path d="M3913 248 c1 -7 -4 -12 -11 -10 -8 1 -11 -2 -7 -8 5 -8 11 -8 21 1 7
6 11 15 8 20 -8 13 -14 11 -11 -3z"/>
<path d="M4513 239 c-2 -23 3 -25 10 -4 4 8 3 16 -1 19 -4 3 -9 -4 -9 -15z"/>
<path d="M4930 250 c0 -5 5 -10 11 -10 5 0 7 5 4 10 -3 6 -8 10 -11 10 -2 0
-4 -4 -4 -10z"/>
<path d="M2270 246 c0 -2 8 -10 18 -17 15 -13 16 -12 3 4 -13 16 -21 21 -21
13z"/>
<path d="M3113 236 c0 -15 22 -15 34 0 4 5 4 6 -1 2 -5 -4 -14 -3 -21 2 -8 7
-12 5 -12 -4z"/>
<path d="M3476 237 c3 -10 9 -15 12 -12 3 3 0 11 -7 18 -10 9 -11 8 -5 -6z"/>
<path d="M3651 234 c0 -11 3 -14 6 -6 3 7 2 16 -1 19 -3 4 -6 -2 -5 -13z"/>
<path d="M4073 236 c0 -15 22 -15 34 0 4 5 4 6 -1 2 -5 -4 -14 -3 -21 2 -8 7
-12 5 -12 -4z"/>
<path d="M4436 237 c3 -10 9 -15 12 -12 3 3 0 11 -7 18 -10 9 -11 8 -5 -6z"/>
<path d="M4611 234 c0 -11 3 -14 6 -6 3 7 2 16 -1 19 -3 4 -6 -2 -5 -13z"/>
<path d="M3033 223 c0 -9 4 -10 14 -2 7 6 13 12 13 14 0 1 -6 2 -13 2 -8 0
-14 -6 -14 -14z"/>
<path d="M3510 226 c7 -7 13 -7 20 0 6 6 3 10 -10 10 -13 0 -16 -4 -10 -10z"/>
<path d="M3999 223 c-13 -16 -12 -17 4 -4 16 13 21 21 13 21 -2 0 -10 -8 -17
-17z"/>
<path d="M4470 226 c7 -7 13 -7 20 0 6 6 3 10 -10 10 -13 0 -16 -4 -10 -10z"/>
<path d="M4815 221 c-3 -5 -2 -12 3 -15 5 -3 9 1 9 9 0 17 -3 19 -12 6z"/>
<path d="M4935 221 c-3 -5 -2 -12 3 -15 5 -3 9 1 9 9 0 17 -3 19 -12 6z"/>
<path d="M3296 212 c-3 -4 4 -9 15 -9 23 -2 25 3 4 10 -8 4 -16 3 -19 -1z"/>
<path d="M3816 212 c-3 -4 4 -9 15 -9 23 -2 25 3 4 10 -8 4 -16 3 -19 -1z"/>
<path d="M4256 212 c-3 -4 4 -9 15 -9 23 -2 25 3 4 10 -8 4 -16 3 -19 -1z"/>
<path d="M4776 212 c-3 -5 1 -9 9 -9 8 0 12 4 9 9 -3 4 -7 8 -9 8 -2 0 -6 -4
-9 -8z"/>
<path d="M4850 209 c0 -5 5 -7 10 -4 6 3 10 8 10 11 0 2 -4 4 -10 4 -5 0 -10
-5 -10 -11z"/>
<path d="M2659 183 c-13 -16 -12 -17 4 -4 16 13 21 21 13 21 -2 0 -10 -8 -17
-17z"/>
<path d="M2906 188 c3 -5 10 -6 15 -3 13 9 11 12 -6 12 -8 0 -12 -4 -9 -9z"/>
</g>
</svg>
